Calmadita-Regular.ufo
<glyph name="exclam" format="2">
  <advance width="295"/>
  <unicode hex="0021"/>
  <outline>
    <contour>
      <point x="107" y="218" type="line"/>
      <point x="187" y="218" type="line"/>
      <point x="187" y="389" type="line"/>
      <point x="198" y="750" type="line"/>
      <point x="94" y="750" type="line"/>
      <point x="107" y="389" type="line"/>
    </contour>
    <contour>
      <point x="147" y="-10" type="curve"/>
      <point x="180" y="-10"/>
      <point x="225" y="45"/>
      <point x="225" y="73" type="curve"/>
      <point x="225" y="95"/>
      <point x="181" y="133"/>
      <point x="146" y="133" type="curve" smooth="yes"/>
      <point x="115" y="133"/>
      <point x="70" y="78"/>
      <point x="70" y="51" type="curve"/>
      <point x="70" y="24"/>
      <point x="117" y="-10"/>
    </contour>
  </outline>
</glyph>
<glyph name="ampersand" format="2">
  <advance width="767"/>
  <unicode hex="0026"/>
  <outline>
    <contour>
      <point x="50" y="251" type="curve" smooth="yes"/>
      <point x="50" y="70"/>
      <point x="132" y="-15"/>
      <point x="335" y="-15" type="curve" smooth="yes"/>
      <point x="493" y="-15"/>
      <point x="671" y="53"/>
      <point x="671" y="328" type="curve" smooth="yes"/>
      <point x="671" y="430"/>
      <point x="626" y="535"/>
      <point x="578" y="605" type="curve"/>
      <point x="617" y="598"/>
      <point x="647" y="595"/>
      <point x="678" y="595" type="curve" smooth="yes"/>
      <point x="761" y="595"/>
      <point x="817" y="626"/>
      <point x="817" y="710" type="curve" smooth="yes"/>
      <point x="817" y="724"/>
      <point x="816" y="738"/>
      <point x="815" y="751" type="curve"/>
      <point x="740" y="751" type="line"/>
      <point x="751" y="677" type="line"/>
      <point x="741" y="668"/>
      <point x="733" y="665"/>
      <point x="711" y="665" type="curve" smooth="yes"/>
      <point x="626" y="665"/>
      <point x="557" y="680"/>
      <point x="486" y="696" type="curve" smooth="yes"/>
      <point x="415" y="712"/>
      <point x="343" y="728"/>
      <point x="240" y="728" type="curve"/>
      <point x="187" y="686" type="line"/>
      <point x="182" y="674"/>
      <point x="179" y="659"/>
      <point x="179" y="640" type="curve" smooth="yes"/>
      <point x="179" y="631"/>
      <point x="179" y="628"/>
      <point x="183" y="589" type="curve"/>
      <point x="263" y="589" type="line"/>
      <point x="249" y="645" type="line"/>
      <point x="259" y="655"/>
      <point x="277" y="659"/>
      <point x="301" y="659" type="curve" smooth="yes"/>
      <point x="356" y="659"/>
      <point x="436" y="638"/>
      <point x="484" y="626" type="curve"/>
      <point x="457" y="650" type="line"/>
      <point x="528" y="583"/>
      <point x="586" y="467"/>
      <point x="586" y="328" type="curve" smooth="yes"/>
      <point x="586" y="100"/>
      <point x="439" y="52"/>
      <point x="341" y="52" type="curve" smooth="yes"/>
      <point x="200" y="52"/>
      <point x="141" y="108"/>
      <point x="137" y="229" type="curve"/>
      <point x="436" y="229" type="line"/>
      <point x="487" y="294" type="line"/>
      <point x="474" y="457"/>
      <point x="413" y="515"/>
      <point x="281" y="515" type="curve" smooth="yes"/>
      <point x="139" y="515"/>
      <point x="50" y="412"/>
    </contour>
    <contour>
      <point x="141" y="299" type="line"/>
      <point x="141" y="349"/>
      <point x="152" y="387"/>
      <point x="208" y="439" type="curve"/>
      <point x="239" y="444"/>
      <point x="264" y="446"/>
      <point x="281" y="446" type="curve" smooth="yes"/>
      <point x="364" y="446"/>
      <point x="405" y="397"/>
      <point x="405" y="299" type="curve"/>
    </contour>
  </outline>
</glyph>
<glyph name="parenleft" format="2">
  <advance width="374"/>
  <unicode hex="0028"/>
  <outline>
    <contour>
      <point x="319" y="-166" type="curve"/>
      <point x="359" y="-117" type="line"/>
      <point x="241" y="-3"/>
      <point x="192" y="161"/>
      <point x="192" y="319" type="curve" smooth="yes"/>
      <point x="192" y="483"/>
      <point x="240" y="648"/>
      <point x="358" y="762" type="curve"/>
      <point x="319" y="812" type="line"/>
      <point x="163" y="703"/>
      <point x="100" y="508"/>
      <point x="100" y="318" type="curve" smooth="yes"/>
      <point x="100" y="135"/>
      <point x="163" y="-57"/>
    </contour>
  </outline>
</glyph>
<glyph name="parenright" format="2">
  <advance width="374"/>
  <unicode hex="0029"/>
  <outline>
    <contour>
      <point x="57" y="-166" type="line"/>
      <point x="213" y="-57"/>
      <point x="276" y="135"/>
      <point x="276" y="318" type="curve" smooth="yes"/>
      <point x="276" y="508"/>
      <point x="213" y="703"/>
      <point x="57" y="812" type="curve"/>
      <point x="18" y="762" type="line"/>
      <point x="136" y="648"/>
      <point x="184" y="483"/>
      <point x="184" y="319" type="curve" smooth="yes"/>
      <point x="184" y="161"/>
      <point x="135" y="-3"/>
      <point x="17" y="-117" type="curve"/>
    </contour>
  </outline>
</glyph>
<glyph name="comma" format="2">
  <advance width="280"/>
  <unicode hex="002C"/>
  <outline>
    <contour>
      <point x="114" y="-154" type="line"/>
      <point x="182" y="-63"/>
      <point x="220" y="-11"/>
      <point x="220" y="43" type="curve" smooth="yes"/>
      <point x="220" y="90"/>
      <point x="199" y="123"/>
      <point x="136" y="140" type="curve"/>
      <point x="102" y="140"/>
      <point x="60" y="82"/>
      <point x="60" y="53" type="curve" smooth="yes"/>
      <point x="60" y="26"/>
      <point x="96" y="-11"/>
      <point x="150" y="-11" type="curve" smooth="yes"/>
      <point x="155" y="-11"/>
      <point x="161" y="-11"/>
      <point x="167" y="-10" type="curve"/>
      <point x="190" y="36" type="line"/>
      <point x="68" y="-117" type="line"/>
    </contour>
  </outline>
</glyph>
<glyph name="hyphen" format="2">
  <advance width="457"/>
  <unicode hex="002D"/>
  <outline>
    <contour>
      <point x="50" y="302" type="line"/>
      <point x="71" y="251" type="line"/>
      <point x="229" y="260" type="line"/>
      <point x="386" y="251" type="line"/>
      <point x="407" y="302" type="line"/>
      <point x="388" y="334" type="line"/>
      <point x="229" y="328" type="line"/>
      <point x="69" y="334" type="line"/>
    </contour>
  </outline>
</glyph>
<glyph name="period" format="2">
  <advance width="273"/>
  <unicode hex="002E"/>
  <outline>
    <contour>
      <point x="136" y="-10" type="curve" smooth="yes"/>
      <point x="170" y="-10"/>
      <point x="213" y="47"/>
      <point x="213" y="76" type="curve" smooth="yes"/>
      <point x="213" y="99"/>
      <point x="167" y="140"/>
      <point x="135" y="140" type="curve" smooth="yes"/>
      <point x="103" y="140"/>
      <point x="60" y="82"/>
      <point x="60" y="53" type="curve" smooth="yes"/>
      <point x="60" y="25"/>
      <point x="105" y="-10"/>
    </contour>
  </outline>
</glyph>
<glyph name="zero" format="2">
  <advance width="654"/>
  <unicode hex="0030"/>
  <outline>
    <contour>
      <point x="50" y="325" type="curve" smooth="yes"/>
      <point x="50" y="119"/>
      <point x="125" y="-15"/>
      <point x="324" y="-15" type="curve" smooth="yes"/>
      <point x="503" y="-15"/>
      <point x="604" y="122"/>
      <point x="604" y="317" type="curve" smooth="yes"/>
      <point x="604" y="543"/>
      <point x="519" y="664"/>
      <point x="330" y="664" type="curve" smooth="yes"/>
      <point x="154" y="664"/>
      <point x="50" y="530"/>
    </contour>
    <contour>
      <point x="147" y="325" type="curve" smooth="yes"/>
      <point x="147" y="450"/>
      <point x="170" y="524"/>
      <point x="227" y="580" type="curve"/>
      <point x="250" y="585"/>
      <point x="295" y="591"/>
      <point x="316" y="591" type="curve" smooth="yes"/>
      <point x="449" y="591"/>
      <point x="507" y="487"/>
      <point x="507" y="317" type="curve" smooth="yes"/>
      <point x="507" y="202"/>
      <point x="483" y="128"/>
      <point x="427" y="70" type="curve"/>
      <point x="404" y="66"/>
      <point x="359" y="60"/>
      <point x="338" y="60" type="curve" smooth="yes"/>
      <point x="205" y="60"/>
      <point x="147" y="162"/>
    </contour>
  </outline>
</glyph>
<glyph name="one" format="2">
  <advance width="445"/>
  <unicode hex="0031"/>
  <outline>
    <contour>
      <point x="85" y="0" type="line"/>
      <point x="405" y="0" type="line"/>
      <point x="405" y="53" type="line"/>
      <point x="262" y="73" type="line"/>
      <point x="228" y="73" type="line"/>
      <point x="85" y="53" type="line"/>
    </contour>
    <contour>
      <point x="60" y="580" type="line"/>
      <point x="70" y="514" type="line"/>
      <point x="242" y="571" type="line"/>
      <point x="205" y="601" type="line"/>
      <point x="205" y="325" type="line"/>
      <point x="195" y="28" type="line"/>
      <point x="297" y="28" type="line"/>
      <point x="287" y="325" type="line"/>
      <point x="297" y="662" type="line"/>
      <point x="248" y="662" type="line"/>
    </contour>
  </outline>
</glyph>
<glyph name="two" format="2">
  <advance width="546"/>
  <unicode hex="0032"/>
  <guideline x="34" y="575" angle="90"/>
  <guideline x="439" y="292" angle="90"/>
  <guideline x="265" y="59" angle="0"/>
  <outline>
    <contour>
      <point x="426" y="0" type="line"/>
      <point x="496" y="0" type="line"/>
      <point x="496" y="178" type="line"/>
      <point x="426" y="178" type="line"/>
      <point x="402" y="61" type="line"/>
    </contour>
    <contour>
      <point x="40" y="554" type="line"/>
      <point x="83" y="523" type="line"/>
      <point x="147" y="559"/>
      <point x="211" y="584"/>
      <point x="275" y="596" type="curve"/>
      <point x="331" y="591"/>
      <point x="369" y="555"/>
      <point x="369" y="489" type="curve" smooth="yes"/>
      <point x="369" y="330"/>
      <point x="184" y="217"/>
      <point x="44" y="70" type="curve"/>
      <point x="44" y="0" type="line"/>
      <point x="495" y="0" type="line"/>
      <point x="495" y="85" type="line"/>
      <point x="109" y="85" type="line"/>
      <point x="125" y="48" type="line"/>
      <point x="316" y="208"/>
      <point x="463" y="332"/>
      <point x="463" y="489" type="curve" smooth="yes"/>
      <point x="463" y="619"/>
      <point x="348" y="665"/>
      <point x="264" y="665" type="curve" smooth="yes"/>
      <point x="188" y="665"/>
      <point x="120" y="632"/>
      <point x="68" y="605" type="curve"/>
    </contour>
  </outline>
</glyph>
<glyph name="three" format="2">
  <advance width="547"/>
  <unicode hex="0033"/>
  <outline>
    <contour>
      <point x="50" y="72" type="line"/>
      <point x="86" y="20" type="line"/>
      <point x="166" y="-9"/>
      <point x="198" y="-15"/>
      <point x="273" y="-15" type="curve" smooth="yes"/>
      <point x="398" y="-15"/>
      <point x="497" y="83"/>
      <point x="497" y="195" type="curve" smooth="yes"/>
      <point x="497" y="295"/>
      <point x="415" y="389"/>
      <point x="292" y="389" type="curve" smooth="yes"/>
      <point x="277" y="389" type="line"/>
      <point x="475" y="579" type="line"/>
      <point x="445" y="657" type="line"/>
      <point x="62" y="657" type="line"/>
      <point x="58" y="486" type="line"/>
      <point x="129" y="484" type="line"/>
      <point x="147" y="579" type="line"/>
      <point x="371" y="579" type="line"/>
      <point x="161" y="372" type="line"/>
      <point x="170" y="309" type="line"/>
      <point x="281" y="334" type="line"/>
      <point x="351" y="320"/>
      <point x="403" y="280"/>
      <point x="403" y="192" type="curve" smooth="yes"/>
      <point x="403" y="151"/>
      <point x="402" y="117"/>
      <point x="355" y="68" type="curve"/>
      <point x="330" y="63"/>
      <point x="304" y="60"/>
      <point x="278" y="60" type="curve" smooth="yes"/>
      <point x="206" y="60"/>
      <point x="136" y="80"/>
      <point x="90" y="113" type="curve"/>
    </contour>
  </outline>
</glyph>
<glyph name="four" format="2">
  <advance width="606"/>
  <unicode hex="0034"/>
  <outline>
    <contour>
      <point x="51" y="194" type="line"/>
      <point x="562" y="194" type="line"/>
      <point x="562" y="274" type="line"/>
      <point x="87" y="274" type="line"/>
      <point x="126" y="235" type="line"/>
      <point x="259" y="413" type="line"/>
      <point x="469" y="662" type="line"/>
      <point x="368" y="662" type="line"/>
      <point x="208" y="456" type="line"/>
      <point x="51" y="267" type="line"/>
    </contour>
    <contour>
      <point x="256" y="0" type="line"/>
      <point x="576" y="0" type="line"/>
      <point x="576" y="53" type="line"/>
      <point x="433" y="73" type="line"/>
      <point x="399" y="73" type="line"/>
      <point x="256" y="53" type="line"/>
    </contour>
    <contour>
      <point x="367" y="28" type="line"/>
      <point x="467" y="28" type="line"/>
      <point x="458" y="344" type="line"/>
      <point x="468" y="662" type="line"/>
      <point x="367" y="662" type="line"/>
      <point x="376" y="345" type="line"/>
    </contour>
  </outline>
</glyph>
<glyph name="six" format="2">
  <advance width="595"/>
  <unicode hex="0036"/>
  <outline>
    <contour>
      <point x="50" y="326" type="curve" smooth="yes"/>
      <point x="50" y="114"/>
      <point x="132" y="-15"/>
      <point x="323" y="-15" type="curve" smooth="yes"/>
      <point x="461" y="-15"/>
      <point x="545" y="92"/>
      <point x="545" y="208" type="curve" smooth="yes"/>
      <point x="545" y="333"/>
      <point x="450" y="412"/>
      <point x="351" y="412" type="curve" smooth="yes"/>
      <point x="301" y="412"/>
      <point x="235" y="390"/>
      <point x="150" y="303" type="curve"/>
      <point x="154" y="425"/>
      <point x="160" y="521"/>
      <point x="234" y="580" type="curve"/>
      <point x="257" y="585"/>
      <point x="282" y="587"/>
      <point x="307" y="587" type="curve" smooth="yes"/>
      <point x="362" y="587"/>
      <point x="418" y="575"/>
      <point x="469" y="541" type="curve"/>
      <point x="510" y="568" type="line"/>
      <point x="477" y="631" type="line"/>
      <point x="422" y="655"/>
      <point x="362" y="665"/>
      <point x="325" y="665" type="curve" smooth="yes"/>
      <point x="156" y="665"/>
      <point x="50" y="522"/>
    </contour>
    <contour>
      <point x="157" y="224" type="curve"/>
      <point x="178" y="249"/>
      <point x="248" y="319"/>
      <point x="337" y="350" type="curve"/>
      <point x="412" y="334"/>
      <point x="448" y="280"/>
      <point x="448" y="203" type="curve" smooth="yes"/>
      <point x="448" y="160"/>
      <point x="443" y="96"/>
      <point x="391" y="63" type="curve"/>
      <point x="372" y="60"/>
      <point x="354" y="58"/>
      <point x="337" y="58" type="curve" smooth="yes"/>
      <point x="237" y="58"/>
      <point x="179" y="112"/>
    </contour>
  </outline>
</glyph>
<glyph name="seven" format="2">
  <advance width="505"/>
  <unicode hex="0037"/>
  <outline>
    <contour>
      <point x="33" y="473" type="line"/>
      <point x="105" y="473" type="line"/>
      <point x="122" y="578" type="line"/>
      <point x="466" y="578" type="line"/>
      <point x="403" y="599" type="line"/>
      <point x="255" y="308" type="line"/>
      <point x="113" y="0" type="line"/>
      <point x="220" y="0" type="line"/>
      <point x="331" y="302" type="line"/>
      <point x="495" y="592" type="line"/>
      <point x="472" y="658" type="line"/>
      <point x="33" y="658" type="line"/>
    </contour>
  </outline>
</glyph>
<glyph name="eight" format="2">
  <advance width="614"/>
  <unicode hex="0038"/>
  <guideline x="82" y="478" angle="90.0502"/>
  <guideline x="530" y="497" angle="90"/>
  <guideline x="559" y="185" angle="90"/>
  <guideline x="55" y="171" angle="90"/>
  <outline>
    <contour>
      <point x="60" y="171" type="curve" smooth="yes"/>
      <point x="60" y="269"/>
      <point x="128" y="328"/>
      <point x="220" y="362" type="curve"/>
      <point x="257" y="324" type="line"/>
      <point x="165" y="280"/>
      <point x="152" y="232"/>
      <point x="152" y="175" type="curve" smooth="yes"/>
      <point x="152" y="107"/>
      <point x="224" y="56"/>
      <point x="307" y="56" type="curve" smooth="yes"/>
      <point x="364" y="56"/>
      <point x="417" y="56"/>
      <point x="462" y="99" type="curve"/>
      <point x="420" y="46" type="line"/>
      <point x="450" y="86"/>
      <point x="465" y="139"/>
      <point x="465" y="174" type="curve" smooth="yes"/>
      <point x="465" y="238"/>
      <point x="440" y="282"/>
      <point x="377" y="296" type="curve" smooth="yes"/>
      <point x="334" y="306"/>
      <point x="253" y="316"/>
      <point x="216" y="325" type="curve" smooth="yes"/>
      <point x="117" y="349"/>
      <point x="87" y="413"/>
      <point x="87" y="478" type="curve" smooth="yes"/>
      <point x="87" y="597"/>
      <point x="193" y="668"/>
      <point x="313" y="668" type="curve" smooth="yes"/>
      <point x="419" y="668"/>
      <point x="527" y="607"/>
      <point x="527" y="497" type="curve" smooth="yes"/>
      <point x="527" y="424"/>
      <point x="469" y="363"/>
      <point x="389" y="333" type="curve"/>
      <point x="326" y="362" type="line"/>
      <point x="394" y="386"/>
      <point x="438" y="429"/>
      <point x="438" y="497" type="curve" smooth="yes"/>
      <point x="438" y="562"/>
      <point x="387" y="598"/>
      <point x="317" y="598" type="curve" smooth="yes"/>
      <point x="279" y="598"/>
      <point x="231" y="598"/>
      <point x="182" y="575" type="curve"/>
      <point x="222" y="612" type="line"/>
      <point x="194" y="586"/>
      <point x="176" y="530"/>
      <point x="176" y="490" type="curve" smooth="yes"/>
      <point x="176" y="449"/>
      <point x="201" y="408"/>
      <point x="250" y="397" type="curve" smooth="yes"/>
      <point x="309" y="384"/>
      <point x="357" y="375"/>
      <point x="417" y="362" type="curve" smooth="yes"/>
      <point x="504" y="342"/>
      <point x="554" y="282"/>
      <point x="554" y="185" type="curve" smooth="yes"/>
      <point x="554" y="59"/>
      <point x="448" y="-17"/>
      <point x="309" y="-17" type="curve" smooth="yes"/>
      <point x="218" y="-17"/>
      <point x="60" y="25"/>
    </contour>
  </outline>
</glyph>
<glyph name="nine" format="2">
  <advance width="595"/>
  <unicode hex="0039"/>
  <outline>
    <contour>
      <point x="545" y="324" type="curve" smooth="yes"/>
      <point x="545" y="536"/>
      <point x="463" y="665"/>
      <point x="272" y="665" type="curve" smooth="yes"/>
      <point x="134" y="665"/>
      <point x="50" y="558"/>
      <point x="50" y="442" type="curve" smooth="yes"/>
      <point x="50" y="317"/>
      <point x="145" y="238"/>
      <point x="244" y="238" type="curve" smooth="yes"/>
      <point x="294" y="238"/>
      <point x="360" y="260"/>
      <point x="445" y="347" type="curve"/>
      <point x="441" y="225"/>
      <point x="435" y="129"/>
      <point x="361" y="70" type="curve"/>
      <point x="338" y="65"/>
      <point x="313" y="63"/>
      <point x="288" y="63" type="curve" smooth="yes"/>
      <point x="233" y="63"/>
      <point x="177" y="75"/>
      <point x="126" y="109" type="curve"/>
      <point x="85" y="82" type="line"/>
      <point x="118" y="19" type="line"/>
      <point x="173" y="-5"/>
      <point x="233" y="-15"/>
      <point x="270" y="-15" type="curve" smooth="yes"/>
      <point x="439" y="-15"/>
      <point x="545" y="128"/>
    </contour>
    <contour>
      <point x="438" y="426" type="curve"/>
      <point x="417" y="401"/>
      <point x="347" y="331"/>
      <point x="258" y="300" type="curve"/>
      <point x="183" y="316"/>
      <point x="147" y="370"/>
      <point x="147" y="447" type="curve" smooth="yes"/>
      <point x="147" y="490"/>
      <point x="152" y="554"/>
      <point x="204" y="587" type="curve"/>
      <point x="223" y="590"/>
      <point x="241" y="592"/>
      <point x="258" y="592" type="curve" smooth="yes"/>
      <point x="358" y="592"/>
      <point x="416" y="538"/>
    </contour>
  </outline>
</glyph>
<glyph name="colon" format="2">
  <advance width="273"/>
  <unicode hex="003A"/>
  <outline>
    <contour>
      <point x="136" y="303" type="curve" smooth="yes"/>
      <point x="170" y="303"/>
      <point x="213" y="360"/>
      <point x="213" y="389" type="curve" smooth="yes"/>
      <point x="213" y="412"/>
      <point x="167" y="453"/>
      <point x="135" y="453" type="curve" smooth="yes"/>
      <point x="103" y="453"/>
      <point x="60" y="395"/>
      <point x="60" y="366" type="curve" smooth="yes"/>
      <point x="60" y="338"/>
      <point x="105" y="303"/>
    </contour>
    <contour>
      <point x="136" y="-10" type="curve" smooth="yes"/>
      <point x="170" y="-10"/>
      <point x="213" y="47"/>
      <point x="213" y="76" type="curve" smooth="yes"/>
      <point x="213" y="99"/>
      <point x="167" y="140"/>
      <point x="135" y="140" type="curve" smooth="yes"/>
      <point x="103" y="140"/>
      <point x="60" y="82"/>
      <point x="60" y="53" type="curve" smooth="yes"/>
      <point x="60" y="25"/>
      <point x="105" y="-10"/>
    </contour>
  </outline>
</glyph>
<glyph name="semicolon" format="2">
  <advance width="280"/>
  <unicode hex="003B"/>
  <outline>
    <contour>
      <point x="136" y="303" type="curve" smooth="yes"/>
      <point x="170" y="303"/>
      <point x="213" y="360"/>
      <point x="213" y="389" type="curve" smooth="yes"/>
      <point x="213" y="412"/>
      <point x="167" y="453"/>
      <point x="135" y="453" type="curve" smooth="yes"/>
      <point x="103" y="453"/>
      <point x="60" y="395"/>
      <point x="60" y="366" type="curve" smooth="yes"/>
      <point x="60" y="338"/>
      <point x="105" y="303"/>
    </contour>
    <contour>
      <point x="114" y="-154" type="line"/>
      <point x="182" y="-63"/>
      <point x="220" y="-11"/>
      <point x="220" y="43" type="curve" smooth="yes"/>
      <point x="220" y="90"/>
      <point x="199" y="123"/>
      <point x="136" y="140" type="curve"/>
      <point x="102" y="140"/>
      <point x="60" y="82"/>
      <point x="60" y="53" type="curve" smooth="yes"/>
      <point x="60" y="26"/>
      <point x="96" y="-11"/>
      <point x="150" y="-11" type="curve" smooth="yes"/>
      <point x="155" y="-11"/>
      <point x="161" y="-11"/>
      <point x="167" y="-10" type="curve"/>
      <point x="190" y="36" type="line"/>
      <point x="68" y="-117" type="line"/>
    </contour>
  </outline>
</glyph>
<glyph name="question" format="2">
  <advance width="462"/>
  <unicode hex="003F"/>
  <guideline x="273" y="750" angle="0"/>
  <guideline x="206" y="-10" angle="0"/>
  <outline>
    <contour>
      <point x="40" y="683" type="line"/>
      <point x="126" y="706" type="line"/>
      <point x="114" y="556" type="line"/>
      <point x="53" y="556" type="line"/>
    </contour>
    <contour>
      <point x="217" y="141" type="curve"/>
      <point x="187" y="141"/>
      <point x="138" y="89"/>
      <point x="138" y="57" type="curve" smooth="yes"/>
      <point x="138" y="32"/>
      <point x="186" y="-5"/>
      <point x="219" y="-5" type="curve" smooth="yes"/>
      <point x="247" y="-5"/>
      <point x="295" y="48"/>
      <point x="295" y="79" type="curve"/>
      <point x="295" y="105"/>
      <point x="250" y="141"/>
    </contour>
    <contour>
      <point x="412" y="594" type="curve" smooth="yes"/>
      <point x="412" y="552"/>
      <point x="385" y="505"/>
      <point x="345" y="476" type="curve" smooth="yes"/>
      <point x="311" y="452"/>
      <point x="277" y="430"/>
      <point x="249" y="414" type="curve" smooth="yes"/>
      <point x="208" y="390"/>
      <point x="190" y="366"/>
      <point x="190" y="334" type="curve" smooth="yes"/>
      <point x="190" y="324"/>
      <point x="192" y="312"/>
      <point x="196" y="299" type="curve"/>
      <point x="204" y="296"/>
      <point x="216" y="294"/>
      <point x="232" y="294" type="curve" smooth="yes"/>
      <point x="250" y="294"/>
      <point x="263" y="295"/>
      <point x="272" y="298" type="curve"/>
      <point x="299" y="264" type="line"/>
      <point x="278" y="227" type="line"/>
      <point x="227" y="227" type="line"/>
      <point x="161" y="227"/>
      <point x="112" y="270"/>
      <point x="112" y="328" type="curve" smooth="yes"/>
      <point x="112" y="386"/>
      <point x="134" y="422"/>
      <point x="191" y="457" type="curve" smooth="yes"/>
      <point x="231" y="483"/>
      <point x="252" y="497"/>
      <point x="275" y="512" type="curve" smooth="yes"/>
      <point x="309" y="537"/>
      <point x="323" y="563"/>
      <point x="323" y="600" type="curve" smooth="yes"/>
      <point x="323" y="631"/>
      <point x="314" y="654"/>
      <point x="296" y="670" type="curve"/>
      <point x="265" y="682"/>
      <point x="244" y="682"/>
      <point x="214" y="682" type="curve" smooth="yes"/>
      <point x="172" y="682"/>
      <point x="125" y="668"/>
      <point x="86" y="644" type="curve"/>
      <point x="40" y="683" type="line"/>
      <point x="80" y="725"/>
      <point x="149" y="750"/>
      <point x="224" y="750" type="curve" smooth="yes"/>
      <point x="348" y="750"/>
      <point x="412" y="697"/>
    </contour>
  </outline>
</glyph>
<glyph name="D" format="2">
  <advance width="739"/>
  <unicode hex="0044"/>
  <outline>
    <contour>
      <point x="30" y="0" type="line"/>
      <point x="135" y="0" type="line"/>
      <point x="135" y="0"/>
      <point x="271" y="-13"/>
      <point x="380" y="-13" type="curve" smooth="yes"/>
      <point x="584" y="-13"/>
      <point x="689" y="128"/>
      <point x="689" y="361" type="curve" smooth="yes"/>
      <point x="689" y="560"/>
      <point x="602" y="726"/>
      <point x="373" y="726" type="curve" smooth="yes"/>
      <point x="369" y="726"/>
      <point x="347" y="726"/>
      <point x="159" y="720" type="curve"/>
      <point x="30" y="720" type="line"/>
      <point x="30" y="666" type="line"/>
      <point x="106" y="649" type="line"/>
      <point x="114" y="350" type="line"/>
      <point x="105" y="65" type="line"/>
      <point x="30" y="49" type="line"/>
    </contour>
    <contour>
      <point x="198" y="350" type="line"/>
      <point x="206" y="641" type="line"/>
      <point x="324" y="646"/>
      <point x="339" y="647"/>
      <point x="344" y="647" type="curve" smooth="yes"/>
      <point x="530" y="647"/>
      <point x="592" y="532"/>
      <point x="592" y="361" type="curve" smooth="yes"/>
      <point x="592" y="226"/>
      <point x="559" y="140"/>
      <point x="490" y="75" type="curve"/>
      <point x="446" y="67"/>
      <point x="402" y="64"/>
      <point x="357" y="64" type="curve" smooth="yes"/>
      <point x="307" y="64"/>
      <point x="256" y="62"/>
      <point x="206" y="69" type="curve"/>
    </contour>
  </outline>
</glyph>
<glyph name="E" format="2">
  <advance width="627"/>
  <unicode hex="0045"/>
  <anchor x="324" y="720" name="top.UC"/>
  <outline>
    <contour>
      <point x="105" y="26" type="line"/>
      <point x="209" y="26" type="line"/>
      <point x="199" y="356" type="line"/>
      <point x="209" y="703" type="line"/>
      <point x="105" y="703" type="line"/>
      <point x="115" y="356" type="line"/>
    </contour>
    <contour>
      <point x="30" y="0" type="line"/>
      <point x="567" y="0" type="line"/>
      <point x="567" y="199" type="line"/>
      <point x="497" y="199" type="line"/>
      <point x="467" y="28" type="line"/>
      <point x="533" y="75" type="line"/>
      <point x="174" y="74" type="line"/>
      <point x="146" y="74" type="line"/>
      <point x="30" y="49" type="line"/>
    </contour>
    <contour>
      <point x="30" y="671" type="line"/>
      <point x="146" y="648" type="line"/>
      <point x="522" y="643" type="line"/>
      <point x="467" y="689" type="line"/>
      <point x="492" y="516" type="line"/>
      <point x="562" y="516" type="line"/>
      <point x="562" y="720" type="line"/>
      <point x="30" y="720" type="line"/>
    </contour>
    <contour>
      <point x="479" y="318" type="line"/>
      <point x="500" y="379" type="line"/>
      <point x="481" y="411" type="line"/>
      <point x="354" y="401" type="line"/>
      <point x="199" y="402" type="line"/>
      <point x="199" y="332" type="line"/>
      <point x="354" y="331" type="line"/>
    </contour>
  </outline>
</glyph>
<glyph name="G" format="2">
  <advance width="703"/>
  <unicode hex="0047"/>
  <outline>
    <contour>
      <point x="626" y="492" type="line"/>
      <point x="653" y="654" type="line"/>
      <point x="549" y="685" type="line"/>
      <point x="555" y="492" type="line"/>
    </contour>
    <contour>
      <point x="402" y="275" type="line"/>
      <point x="547" y="278" type="line"/>
      <point x="643" y="279" type="line"/>
      <point x="643" y="349" type="line"/>
      <point x="547" y="348" type="line"/>
      <point x="400" y="358" type="line"/>
      <point x="381" y="326" type="line"/>
    </contour>
    <contour>
      <point x="50" y="358" type="curve" smooth="yes"/>
      <point x="50" y="119"/>
      <point x="162" y="-15"/>
      <point x="391" y="-15" type="curve" smooth="yes"/>
      <point x="509" y="-15"/>
      <point x="576" y="25"/>
      <point x="644" y="70" type="curve"/>
      <point x="643" y="338" type="line"/>
      <point x="556" y="338" type="line"/>
      <point x="565" y="103" type="line"/>
      <point x="462" y="68" type="line"/>
      <point x="442" y="66"/>
      <point x="423" y="65"/>
      <point x="405" y="65" type="curve" smooth="yes"/>
      <point x="223" y="65"/>
      <point x="145" y="171"/>
      <point x="145" y="360" type="curve" smooth="yes"/>
      <point x="145" y="501"/>
      <point x="176" y="583"/>
      <point x="246" y="646" type="curve"/>
      <point x="289" y="653"/>
      <point x="329" y="657"/>
      <point x="367" y="657" type="curve" smooth="yes"/>
      <point x="450" y="657"/>
      <point x="520" y="638"/>
      <point x="582" y="594" type="curve"/>
      <point x="653" y="654" type="line"/>
      <point x="589" y="696"/>
      <point x="470" y="736"/>
      <point x="378" y="736" type="curve" smooth="yes"/>
      <point x="173" y="736"/>
      <point x="50" y="605"/>
    </contour>
  </outline>
</glyph>
<glyph name="I" format="2">
  <advance width="358"/>
  <unicode hex="0049"/>
  <anchor x="179" y="720" name="top.UC"/>
  <outline>
    <contour>
      <point x="129" y="26" type="line"/>
      <point x="233" y="26" type="line"/>
      <point x="223" y="360" type="line"/>
      <point x="233" y="702" type="line"/>
      <point x="129" y="702" type="line"/>
      <point x="139" y="360" type="line"/>
    </contour>
    <contour>
      <point x="20" y="0" type="line" smooth="yes"/>
      <point x="20" y="-1"/>
      <point x="100" y="-1"/>
      <point x="179" y="-1" type="curve" smooth="yes"/>
      <point x="259" y="-1"/>
      <point x="338" y="-1"/>
      <point x="338" y="0" type="curve" smooth="yes"/>
      <point x="338" y="49" type="line"/>
      <point x="194" y="73" type="line"/>
      <point x="160" y="73" type="line"/>
      <point x="20" y="49" type="line"/>
    </contour>
    <contour>
      <point x="160" y="646" type="line"/>
      <point x="194" y="646" type="line"/>
      <point x="338" y="670" type="line"/>
      <point x="338" y="719" type="line" smooth="yes"/>
      <point x="338" y="720"/>
      <point x="259" y="720"/>
      <point x="179" y="720" type="curve" smooth="yes"/>
      <point x="100" y="720"/>
      <point x="20" y="720"/>
      <point x="20" y="719" type="curve" smooth="yes"/>
      <point x="20" y="670" type="line"/>
    </contour>
  </outline>
</glyph>
<glyph name="J" format="2">
  <advance width="367"/>
  <unicode hex="004A"/>
  <outline>
    <contour>
      <point x="186" y="646" type="line"/>
      <point x="220" y="646" type="line"/>
      <point x="367" y="670" type="line"/>
      <point x="367" y="719" type="line" smooth="yes"/>
      <point x="367" y="720"/>
      <point x="287" y="720"/>
      <point x="207" y="720" type="curve" smooth="yes"/>
      <point x="126" y="720"/>
      <point x="46" y="720"/>
      <point x="46" y="719" type="curve" smooth="yes"/>
      <point x="46" y="670" type="line"/>
    </contour>
    <contour>
      <point x="0" y="-138" type="line"/>
      <point x="58" y="-166" type="line"/>
      <point x="216" y="-158"/>
      <point x="249" y="-104"/>
      <point x="249" y="159" type="curve" smooth="yes"/>
      <point x="249" y="218"/>
      <point x="248" y="275"/>
      <point x="246" y="340" type="curve"/>
      <point x="256" y="702" type="line"/>
      <point x="152" y="702" type="line"/>
      <point x="162" y="343" type="line"/>
      <point x="162" y="130"/>
      <point x="159" y="-33"/>
      <point x="129" y="-89" type="curve"/>
      <point x="181" y="-58" type="line"/>
      <point x="136" y="-74"/>
      <point x="85" y="-79"/>
      <point x="38" y="-79" type="curve" smooth="yes"/>
      <point x="28" y="-79"/>
      <point x="19" y="-79"/>
      <point x="10" y="-78" type="curve"/>
    </contour>
  </outline>
</glyph>
<glyph name="K" format="2">
  <advance width="669"/>
  <unicode hex="004B"/>
  <outline>
    <contour>
      <point x="170" y="210" type="line"/>
      <point x="327" y="365" type="line"/>
      <point x="585" y="673" type="line"/>
      <point x="495" y="692" type="line"/>
      <point x="281" y="417" type="line"/>
      <point x="150" y="288" type="line"/>
    </contour>
    <contour>
      <point x="30" y="0" type="line"/>
      <point x="288" y="0" type="line"/>
      <point x="288" y="49" type="line"/>
      <point x="174" y="73" type="line"/>
      <point x="140" y="73" type="line"/>
      <point x="30" y="49" type="line"/>
    </contour>
    <contour>
      <point x="104" y="26" type="line"/>
      <point x="208" y="26" type="line"/>
      <point x="198" y="353" type="line"/>
      <point x="208" y="706" type="line"/>
      <point x="104" y="706" type="line"/>
      <point x="114" y="353" type="line"/>
    </contour>
    <contour>
      <point x="140" y="646" type="line"/>
      <point x="174" y="646" type="line"/>
      <point x="288" y="670" type="line"/>
      <point x="288" y="719" type="line" smooth="yes"/>
      <point x="288" y="720"/>
      <point x="224" y="720"/>
      <point x="159" y="720" type="curve" smooth="yes"/>
      <point x="95" y="720"/>
      <point x="30" y="720"/>
      <point x="30" y="719" type="curve" smooth="yes"/>
      <point x="30" y="670" type="line"/>
    </contour>
    <contour>
      <point x="502" y="646" type="line"/>
      <point x="536" y="646" type="line"/>
      <point x="650" y="670" type="line"/>
      <point x="650" y="719" type="line"/>
      <point x="392" y="719" type="line"/>
      <point x="392" y="670" type="line"/>
    </contour>
    <contour>
      <point x="580" y="-5" type="curve"/>
      <point x="659" y="20" type="line"/>
      <point x="649" y="82" type="line"/>
      <point x="635" y="82"/>
      <point x="624" y="82"/>
      <point x="614" y="82" type="curve" smooth="yes"/>
      <point x="580" y="82"/>
      <point x="564" y="84"/>
      <point x="505" y="100" type="curve"/>
      <point x="554" y="68" type="line"/>
      <point x="465" y="236" type="line"/>
      <point x="368" y="429" type="line"/>
      <point x="306" y="357" type="line"/>
      <point x="393" y="196" type="line"/>
      <point x="451" y="52" type="line"/>
      <point x="480" y="12"/>
      <point x="531" y="-5"/>
    </contour>
  </outline>
</glyph>
<glyph name="L" format="2">
  <advance width="521"/>
  <unicode hex="004C"/>
  <outline>
    <contour>
      <point x="105" y="26" type="line"/>
      <point x="209" y="26" type="line"/>
      <point x="199" y="360" type="line"/>
      <point x="209" y="720" type="line"/>
      <point x="105" y="720" type="line"/>
      <point x="115" y="360" type="line"/>
    </contour>
    <contour>
      <point x="31" y="0" type="line"/>
      <point x="290" y="0" type="line"/>
      <point x="521" y="0" type="line"/>
      <point x="521" y="75" type="line"/>
      <point x="146" y="75" type="line"/>
      <point x="31" y="49" type="line"/>
    </contour>
    <contour>
      <point x="453" y="0" type="line"/>
      <point x="521" y="0" type="line"/>
      <point x="521" y="199" type="line"/>
      <point x="451" y="199" type="line"/>
      <point x="428" y="61" type="line"/>
    </contour>
    <contour>
      <point x="141" y="647" type="line"/>
      <point x="174" y="647" type="line"/>
      <point x="288" y="671" type="line"/>
      <point x="288" y="720" type="line"/>
      <point x="30" y="720" type="line"/>
      <point x="30" y="670" type="line"/>
    </contour>
  </outline>
</glyph>
<glyph name="M" format="2">
  <advance width="979"/>
  <unicode hex="004D"/>
  <outline>
    <contour>
      <point x="30" y="0" type="line"/>
      <point x="278" y="0" type="line"/>
      <point x="278" y="51" type="line"/>
      <point x="174" y="73" type="line"/>
      <point x="140" y="73" type="line"/>
      <point x="30" y="51" type="line"/>
    </contour>
    <contour>
      <point x="701" y="0" type="line"/>
      <point x="949" y="0" type="line"/>
      <point x="949" y="51" type="line"/>
      <point x="839" y="73" type="line"/>
      <point x="805" y="73" type="line"/>
      <point x="701" y="51" type="line"/>
    </contour>
    <contour>
      <point x="76" y="671" type="line"/>
      <point x="156" y="654" type="line"/>
      <point x="141" y="360" type="line"/>
      <point x="113" y="26" type="line"/>
      <point x="210" y="26" type="line"/>
      <point x="217" y="360" type="line"/>
      <point x="243" y="687" type="line"/>
      <point x="229" y="685" type="line"/>
      <point x="344" y="337" type="line"/>
      <point x="445" y="0" type="line"/>
      <point x="535" y="0" type="line"/>
      <point x="641" y="360" type="line"/>
      <point x="734" y="648" type="line"/>
      <point x="760" y="360" type="line"/>
      <point x="771" y="26" type="line"/>
      <point x="878" y="26" type="line"/>
      <point x="840" y="360" type="line"/>
      <point x="828" y="657" type="line"/>
      <point x="896" y="671" type="line"/>
      <point x="896" y="720" type="line"/>
      <point x="661" y="720" type="line"/>
      <point x="563" y="360" type="line"/>
      <point x="486" y="108" type="line"/>
      <point x="506" y="109" type="line"/>
      <point x="421" y="372" type="line"/>
      <point x="319" y="720" type="line"/>
      <point x="76" y="720" type="line"/>
    </contour>
  </outline>
</glyph>
<glyph name="N" format="2">
  <advance width="770"/>
  <unicode hex="004E"/>
  <anchor x="402" y="720" name="top.UC"/>
  <outline>
    <contour>
      <point x="548" y="0" type="line"/>
      <point x="647" y="0" type="line"/>
      <point x="436" y="372" type="line"/>
      <point x="247" y="720" type="line"/>
      <point x="132" y="720" type="line"/>
      <point x="368" y="332" type="line"/>
    </contour>
    <contour>
      <point x="30" y="0" type="line"/>
      <point x="288" y="0" type="line"/>
      <point x="288" y="49" type="line"/>
      <point x="174" y="73" type="line"/>
      <point x="140" y="73" type="line"/>
      <point x="30" y="49" type="line"/>
    </contour>
    <contour>
      <point x="570" y="0" type="line"/>
      <point x="652" y="0" type="line"/>
      <point x="647" y="360" type="line"/>
      <point x="658" y="706" type="line"/>
      <point x="560" y="706" type="line"/>
      <point x="570" y="360" type="line"/>
    </contour>
    <contour>
      <point x="592" y="647" type="line"/>
      <point x="626" y="647" type="line"/>
      <point x="740" y="671" type="line"/>
      <point x="740" y="720" type="line"/>
      <point x="482" y="720" type="line"/>
      <point x="482" y="671" type="line"/>
    </contour>
    <contour>
      <point x="30" y="671" type="line"/>
      <point x="110" y="654" type="line"/>
      <point x="118" y="360" type="line"/>
      <point x="108" y="26" type="line"/>
      <point x="206" y="26" type="line"/>
      <point x="195" y="360" type="line"/>
      <point x="201" y="720" type="line"/>
      <point x="30" y="720" type="line"/>
    </contour>
  </outline>
</glyph>
<glyph name="O" format="2">
  <advance width="762"/>
  <unicode hex="004F"/>
  <anchor x="365" y="720" name="top.UC"/>
  <outline>
    <contour>
      <point x="50" y="361" type="curve" smooth="yes"/>
      <point x="50" y="118"/>
      <point x="150" y="-15"/>
      <point x="381" y="-15" type="curve" smooth="yes"/>
      <point x="585" y="-15"/>
      <point x="712" y="118"/>
      <point x="712" y="361" type="curve" smooth="yes"/>
      <point x="712" y="603"/>
      <point x="612" y="736"/>
      <point x="381" y="736" type="curve" smooth="yes"/>
      <point x="174" y="736"/>
      <point x="50" y="603"/>
    </contour>
    <contour>
      <point x="150" y="361" type="curve" smooth="yes"/>
      <point x="150" y="501"/>
      <point x="179" y="583"/>
      <point x="251" y="647" type="curve"/>
      <point x="281" y="651"/>
      <point x="339" y="658"/>
      <point x="366" y="658" type="curve" smooth="yes"/>
      <point x="549" y="658"/>
      <point x="612" y="556"/>
      <point x="612" y="361" type="curve" smooth="yes"/>
      <point x="612" y="223"/>
      <point x="582" y="139"/>
      <point x="511" y="75" type="curve"/>
      <point x="481" y="70"/>
      <point x="423" y="63"/>
      <point x="396" y="63" type="curve" smooth="yes"/>
      <point x="216" y="63"/>
      <point x="150" y="169"/>
    </contour>
  </outline>
</glyph>
<glyph name="P" format="2">
  <advance width="617"/>
  <unicode hex="0050"/>
  <outline>
    <contour>
      <point x="385" y="273" type="line"/>
      <point x="490" y="273"/>
      <point x="587" y="358"/>
      <point x="587" y="505" type="curve" smooth="yes"/>
      <point x="587" y="628"/>
      <point x="495" y="725"/>
      <point x="367" y="725" type="curve"/>
      <point x="186" y="720" type="line"/>
      <point x="218" y="653" type="line"/>
      <point x="319" y="660" type="line"/>
      <point x="443" y="654"/>
      <point x="499" y="610"/>
      <point x="499" y="488" type="curve" smooth="yes"/>
      <point x="499" y="402"/>
      <point x="465" y="368"/>
      <point x="382" y="338" type="curve"/>
      <point x="175" y="348" type="line"/>
      <point x="175" y="278" type="line"/>
    </contour>
    <contour>
      <point x="50" y="0" type="line"/>
      <point x="338" y="0" type="line"/>
      <point x="338" y="49" type="line"/>
      <point x="194" y="73" type="line"/>
      <point x="160" y="73" type="line"/>
      <point x="50" y="49" type="line"/>
    </contour>
    <contour>
      <point x="30" y="671" type="line"/>
      <point x="126" y="650" type="line"/>
      <point x="134" y="357" type="line"/>
      <point x="124" y="26" type="line"/>
      <point x="228" y="26" type="line"/>
      <point x="218" y="357" type="line"/>
      <point x="228" y="697" type="line"/>
      <point x="252" y="720" type="line"/>
      <point x="30" y="720" type="line"/>
    </contour>
  </outline>
</glyph>
<glyph name="Q" format="2">
  <advance width="759"/>
  <unicode hex="0051"/>
  <outline>
    <contour>
      <point x="660" y="-211" type="curve"/>
      <point x="759" y="-185" type="line"/>
      <point x="759" y="-135" type="line"/>
      <point x="571" y="-135"/>
      <point x="577" y="-78"/>
      <point x="349" y="-76" type="curve"/>
      <point x="365" y="-89" type="line"/>
      <point x="427" y="-60"/>
      <point x="578" y="38"/>
      <point x="596" y="56" type="curve"/>
      <point x="417" y="-12" type="line"/>
      <point x="416" y="-4" type="line"/>
      <point x="328" y="-41"/>
      <point x="226" y="-81"/>
      <point x="184" y="-154" type="curve"/>
      <point x="236" y="-202" type="line"/>
      <point x="346" y="-93" type="line"/>
      <point x="267" y="-121" type="line"/>
      <point x="274" y="-121"/>
      <point x="282" y="-121"/>
      <point x="289" y="-121" type="curve" smooth="yes"/>
      <point x="485" y="-121"/>
      <point x="552" y="-211"/>
    </contour>
    <component base="O"/>
  </outline>
</glyph>
<glyph name="R" format="2">
  <advance width="648"/>
  <unicode hex="0052"/>
  <outline>
    <contour>
      <point x="383" y="316" type="line"/>
      <point x="488" y="316"/>
      <point x="587" y="401"/>
      <point x="587" y="525" type="curve" smooth="yes"/>
      <point x="587" y="640"/>
      <point x="495" y="725"/>
      <point x="367" y="725" type="curve"/>
      <point x="186" y="720" type="line"/>
      <point x="218" y="648" type="line"/>
      <point x="319" y="660" type="line"/>
      <point x="437" y="654"/>
      <point x="488" y="610"/>
      <point x="488" y="528" type="curve" smooth="yes"/>
      <point x="488" y="465"/>
      <point x="481" y="430"/>
      <point x="404" y="390" type="curve"/>
      <point x="175" y="390" type="line"/>
      <point x="175" y="318" type="line"/>
    </contour>
    <contour>
      <point x="50" y="0" type="line"/>
      <point x="304" y="0" type="line"/>
      <point x="304" y="49" type="line"/>
      <point x="194" y="73" type="line"/>
      <point x="160" y="73" type="line"/>
      <point x="50" y="49" type="line"/>
    </contour>
    <contour>
      <point x="30" y="671" type="line"/>
      <point x="126" y="650" type="line"/>
      <point x="134" y="360" type="line"/>
      <point x="124" y="26" type="line"/>
      <point x="228" y="26" type="line"/>
      <point x="218" y="370" type="line"/>
      <point x="228" y="720" type="line"/>
      <point x="30" y="720" type="line"/>
    </contour>
    <contour>
      <point x="571" y="-7" type="curve"/>
      <point x="639" y="20" type="line"/>
      <point x="629" y="82" type="line"/>
      <point x="615" y="82"/>
      <point x="604" y="82"/>
      <point x="594" y="82" type="curve" smooth="yes"/>
      <point x="560" y="82"/>
      <point x="544" y="84"/>
      <point x="485" y="100" type="curve"/>
      <point x="541" y="68" type="line"/>
      <point x="445" y="236" type="line"/>
      <point x="394" y="339" type="line"/>
      <point x="294" y="339" type="line"/>
      <point x="449" y="52" type="line"/>
      <point x="478" y="12"/>
      <point x="522" y="-7"/>
    </contour>
  </outline>
</glyph>
<glyph name="S" format="2">
  <advance width="612"/>
  <unicode hex="0053"/>
  <outline>
    <contour>
      <point x="50" y="74" type="curve"/>
      <point x="79" y="243" type="line"/>
      <point x="146" y="243" type="line"/>
      <point x="146" y="61" type="line"/>
      <point x="130" y="114" type="line"/>
      <point x="146" y="79"/>
      <point x="243" y="64"/>
      <point x="313" y="64" type="curve" smooth="yes"/>
      <point x="363" y="64"/>
      <point x="410" y="75"/>
      <point x="441" y="98" type="curve"/>
      <point x="462" y="126"/>
      <point x="468" y="168"/>
      <point x="468" y="192" type="curve" smooth="yes"/>
      <point x="468" y="262"/>
      <point x="437" y="310"/>
      <point x="369" y="320" type="curve" smooth="yes"/>
      <point x="322" y="327"/>
      <point x="236" y="341"/>
      <point x="196" y="352" type="curve" smooth="yes"/>
      <point x="89" y="381"/>
      <point x="59" y="452"/>
      <point x="59" y="523" type="curve" smooth="yes"/>
      <point x="59" y="653"/>
      <point x="175" y="730"/>
      <point x="307" y="730" type="curve" smooth="yes"/>
      <point x="401" y="730"/>
      <point x="484" y="693"/>
      <point x="548" y="636" type="curve"/>
      <point x="519" y="495" type="line"/>
      <point x="451" y="495" type="line"/>
      <point x="447" y="604" type="line"/>
      <point x="398" y="633"/>
      <point x="347" y="648"/>
      <point x="295" y="648" type="curve" smooth="yes"/>
      <point x="257" y="648"/>
      <point x="219" y="644"/>
      <point x="181" y="632" type="curve"/>
      <point x="159" y="606"/>
      <point x="153" y="565"/>
      <point x="153" y="536" type="curve" smooth="yes"/>
      <point x="153" y="491"/>
      <point x="179" y="447"/>
      <point x="233" y="435" type="curve" smooth="yes"/>
      <point x="296" y="421"/>
      <point x="347" y="415"/>
      <point x="412" y="400" type="curve" smooth="yes"/>
      <point x="507" y="378"/>
      <point x="562" y="310"/>
      <point x="562" y="204" type="curve" smooth="yes"/>
      <point x="562" y="70"/>
      <point x="451" y="-14"/>
      <point x="293" y="-14" type="curve" smooth="yes"/>
      <point x="225" y="-14"/>
      <point x="115" y="6"/>
    </contour>
  </outline>
</glyph>
<glyph name="U" format="2">
  <advance width="786"/>
  <unicode hex="0055"/>
  <anchor x="391" y="720" name="top.UC"/>
  <outline>
    <contour>
      <point x="145" y="647" type="line"/>
      <point x="179" y="647" type="line"/>
      <point x="289" y="671" type="line"/>
      <point x="289" y="720" type="line"/>
      <point x="30" y="720" type="line"/>
      <point x="30" y="671" type="line"/>
    </contour>
    <contour>
      <point x="608" y="647" type="line"/>
      <point x="642" y="647" type="line"/>
      <point x="756" y="671" type="line"/>
      <point x="756" y="720" type="line"/>
      <point x="498" y="720" type="line"/>
      <point x="498" y="671" type="line"/>
    </contour>
    <contour>
      <point x="105" y="707" type="line"/>
      <point x="115" y="416" type="line"/>
      <point x="114" y="394"/>
      <point x="114" y="372"/>
      <point x="114" y="352" type="curve" smooth="yes"/>
      <point x="114" y="111"/>
      <point x="167" y="-15"/>
      <point x="393" y="-15" type="curve" smooth="yes"/>
      <point x="613" y="-15"/>
      <point x="672" y="103"/>
      <point x="672" y="335" type="curve" smooth="yes"/>
      <point x="672" y="361"/>
      <point x="672" y="388"/>
      <point x="670" y="416" type="curve"/>
      <point x="677" y="707" type="line"/>
      <point x="573" y="707" type="line"/>
      <point x="586" y="416" type="line"/>
      <point x="584" y="223"/>
      <point x="582" y="138"/>
      <point x="517" y="73" type="curve"/>
      <point x="478" y="64"/>
      <point x="443" y="64"/>
      <point x="402" y="64" type="curve" smooth="yes"/>
      <point x="210" y="64"/>
      <point x="204" y="165"/>
      <point x="199" y="416" type="curve"/>
      <point x="209" y="707" type="line"/>
    </contour>
  </outline>
</glyph>
<glyph name="W" format="2">
  <advance width="1001"/>
  <unicode hex="0057"/>
  <outline>
    <contour>
      <point x="274" y="0" type="line"/>
      <point x="370" y="0" type="line"/>
      <point x="450" y="380" type="line"/>
      <point x="546" y="720" type="line"/>
      <point x="456" y="720" type="line"/>
      <point x="379" y="380" type="line"/>
      <point x="302" y="52" type="line"/>
      <point x="336" y="80" type="line"/>
      <point x="243" y="380" type="line"/>
      <point x="169" y="680" type="line"/>
      <point x="56" y="680" type="line"/>
      <point x="155" y="380" type="line"/>
    </contour>
    <contour>
      <point x="110" y="647" type="line"/>
      <point x="144" y="647" type="line"/>
      <point x="258" y="671" type="line"/>
      <point x="258" y="720" type="line"/>
      <point x="0" y="720" type="line"/>
      <point x="0" y="671" type="line"/>
    </contour>
    <contour>
      <point x="853" y="647" type="line"/>
      <point x="887" y="647" type="line"/>
      <point x="1001" y="671" type="line"/>
      <point x="1001" y="720" type="line"/>
      <point x="743" y="720" type="line"/>
      <point x="743" y="671" type="line"/>
    </contour>
    <contour>
      <point x="639" y="0" type="line"/>
      <point x="742" y="0" type="line"/>
      <point x="837" y="380" type="line"/>
      <point x="939" y="720" type="line"/>
      <point x="849" y="720" type="line"/>
      <point x="768" y="380" type="line"/>
      <point x="679" y="52" type="line"/>
      <point x="717" y="73" type="line"/>
      <point x="640" y="380" type="line"/>
      <point x="547" y="720" type="line"/>
      <point x="453" y="720" type="line"/>
      <point x="471" y="644" type="line"/>
      <point x="550" y="380" type="line"/>
    </contour>
  </outline>
</glyph>
<glyph name="X" format="2">
  <advance width="700"/>
  <unicode hex="0058"/>
  <guideline x="0" y="49" angle="90"/>
  <outline>
    <contour>
      <point x="541" y="0" type="line"/>
      <point x="663" y="0" type="line"/>
      <point x="395" y="371" type="line"/>
      <point x="173" y="692" type="line"/>
      <point x="51" y="692" type="line"/>
      <point x="306" y="357" type="line"/>
    </contour>
    <contour>
      <point x="120" y="647" type="line"/>
      <point x="154" y="647" type="line"/>
      <point x="268" y="671" type="line"/>
      <point x="268" y="720" type="line"/>
      <point x="10" y="720" type="line"/>
      <point x="10" y="671" type="line"/>
    </contour>
    <contour>
      <point x="380" y="334" type="line"/>
      <point x="324" y="385" type="line"/>
      <point x="211" y="220" type="line"/>
      <point x="31" y="0" type="line"/>
      <point x="145" y="0" type="line"/>
      <point x="271" y="184" type="line"/>
    </contour>
    <contour>
      <point x="532" y="647" type="line"/>
      <point x="566" y="647" type="line"/>
      <point x="680" y="671" type="line"/>
      <point x="680" y="720" type="line"/>
      <point x="422" y="720" type="line"/>
      <point x="422" y="671" type="line"/>
    </contour>
    <contour>
      <point x="552" y="73" type="line"/>
      <point x="442" y="49" type="line"/>
      <point x="442" y="0" type="line"/>
      <point x="700" y="0" type="line"/>
      <point x="700" y="49" type="line"/>
      <point x="586" y="73" type="line"/>
    </contour>
    <contour>
      <point x="120" y="73" type="line"/>
      <point x="10" y="49" type="line"/>
      <point x="10" y="0" type="line"/>
      <point x="268" y="0" type="line"/>
      <point x="268" y="49" type="line"/>
      <point x="154" y="73" type="line"/>
    </contour>
    <contour>
      <point x="328" y="403" type="line"/>
      <point x="376" y="354" type="line"/>
      <point x="482" y="500" type="line"/>
      <point x="632" y="692" type="line"/>
      <point x="515" y="692" type="line"/>
      <point x="418" y="534" type="line"/>
    </contour>
  </outline>
</glyph>
<glyph name="Y" format="2">
  <advance width="708"/>
  <unicode hex="0059"/>
  <outline>
    <contour>
      <point x="311" y="247" type="line"/>
      <point x="395" y="247" type="line"/>
      <point x="543" y="506" type="line"/>
      <point x="649" y="680" type="line"/>
      <point x="541" y="680" type="line"/>
      <point x="464" y="506" type="line"/>
      <point x="328" y="289" type="line"/>
      <point x="368" y="316" type="line"/>
      <point x="253" y="506" type="line"/>
      <point x="174" y="680" type="line"/>
      <point x="56" y="680" type="line"/>
      <point x="163" y="506" type="line"/>
    </contour>
    <contour>
      <point x="110" y="647" type="line"/>
      <point x="144" y="647" type="line"/>
      <point x="258" y="671" type="line"/>
      <point x="258" y="720" type="line"/>
      <point x="0" y="720" type="line"/>
      <point x="0" y="671" type="line"/>
    </contour>
    <contour>
      <point x="560" y="647" type="line"/>
      <point x="594" y="647" type="line"/>
      <point x="708" y="671" type="line"/>
      <point x="708" y="720" type="line"/>
      <point x="450" y="720" type="line"/>
      <point x="450" y="671" type="line"/>
    </contour>
    <contour>
      <point x="301" y="26" type="line"/>
      <point x="405" y="26" type="line"/>
      <point x="395" y="278" type="line"/>
      <point x="311" y="278" type="line"/>
    </contour>
    <contour>
      <point x="227" y="0" type="line"/>
      <point x="485" y="0" type="line"/>
      <point x="485" y="51" type="line"/>
      <point x="371" y="71" type="line"/>
      <point x="337" y="71" type="line"/>
      <point x="227" y="51" type="line"/>
    </contour>
  </outline>
</glyph>
<glyph name="Z" format="2">
  <advance width="650"/>
  <unicode hex="005A"/>
  <outline>
    <contour>
      <point x="533" y="0" type="line"/>
      <point x="601" y="0" type="line"/>
      <point x="601" y="199" type="line"/>
      <point x="531" y="199" type="line"/>
      <point x="507" y="61" type="line"/>
      <point x="508" y="55" type="line"/>
    </contour>
    <contour>
      <point x="154" y="653" type="line"/>
      <point x="147" y="664" type="line"/>
      <point x="131" y="720" type="line"/>
      <point x="64" y="720" type="line"/>
      <point x="64" y="515" type="line"/>
      <point x="134" y="515" type="line"/>
    </contour>
    <contour>
      <point x="56" y="0" type="line"/>
      <point x="601" y="0" type="line"/>
      <point x="601" y="76" type="line"/>
      <point x="140" y="76" type="line"/>
      <point x="160" y="37" type="line"/>
      <point x="357" y="332" type="line"/>
      <point x="593" y="666" type="line"/>
      <point x="593" y="720" type="line"/>
      <point x="109" y="720" type="line"/>
      <point x="104" y="642" type="line"/>
      <point x="514" y="645" type="line"/>
      <point x="488" y="686" type="line"/>
      <point x="288" y="372" type="line"/>
      <point x="56" y="63" type="line"/>
    </contour>
  </outline>
</glyph>
<glyph name="a" format="2">
  <advance width="531"/>
  <unicode hex="0061"/>
  <anchor x="238" y="488" name="top.LC"/>
  <outline>
    <contour>
      <point x="192" y="-15" type="curve" smooth="yes"/>
      <point x="269" y="-15"/>
      <point x="354" y="53"/>
      <point x="406" y="120" type="curve"/>
      <point x="382" y="160" type="line"/>
      <point x="327" y="107"/>
      <point x="248" y="59"/>
      <point x="181" y="50" type="curve"/>
      <point x="137" y="61"/>
      <point x="133" y="107"/>
      <point x="133" y="135" type="curve" smooth="yes"/>
      <point x="133" y="213"/>
      <point x="267" y="241"/>
      <point x="386" y="241" type="curve"/>
      <point x="386" y="295" type="line"/>
      <point x="373" y="296"/>
      <point x="360" y="296"/>
      <point x="347" y="296" type="curve" smooth="yes"/>
      <point x="198" y="296"/>
      <point x="50" y="251"/>
      <point x="50" y="122" type="curve" smooth="yes"/>
      <point x="50" y="41"/>
      <point x="100" y="-15"/>
    </contour>
    <contour>
      <point x="70" y="467" type="curve"/>
      <point x="85" y="339" type="line"/>
      <point x="148" y="339" type="line"/>
      <point x="156" y="454" type="line"/>
      <point x="127" y="411" type="line"/>
      <point x="191" y="423"/>
      <point x="257" y="438"/>
      <point x="339" y="438" type="curve" smooth="yes"/>
      <point x="342" y="438"/>
      <point x="344" y="438"/>
      <point x="347" y="438" type="curve"/>
      <point x="365" y="419"/>
      <point x="368" y="394"/>
      <point x="368" y="353" type="curve" smooth="yes"/>
      <point x="368" y="334"/>
      <point x="367" y="311"/>
      <point x="367" y="284" type="curve" smooth="yes"/>
      <point x="367" y="269"/>
      <point x="368" y="227"/>
      <point x="376" y="0" type="curve"/>
      <point x="511" y="0" type="line"/>
      <point x="511" y="53" type="line"/>
      <point x="445" y="66" type="line"/>
      <point x="443" y="250" type="line"/>
      <point x="445" y="286"/>
      <point x="449" y="328"/>
      <point x="449" y="363" type="curve" smooth="yes"/>
      <point x="449" y="459"/>
      <point x="414" y="507"/>
      <point x="327" y="507" type="curve" smooth="yes"/>
      <point x="280" y="507"/>
      <point x="179" y="494"/>
      <point x="108" y="477" type="curve" smooth="yes"/>
      <point x="94" y="474"/>
      <point x="81" y="471"/>
    </contour>
  </outline>
</glyph>
<glyph name="c" format="2">
  <advance width="503"/>
  <unicode hex="0063"/>
  <guideline x="476" y="119" angle="180"/>
  <outline>
    <contour>
      <point x="367" y="476" type="line"/>
      <point x="378" y="341" type="line"/>
      <point x="441" y="341" type="line"/>
      <point x="455" y="453" type="line"/>
    </contour>
    <contour>
      <point x="50" y="251" type="curve" smooth="yes"/>
      <point x="50" y="70"/>
      <point x="129" y="-15"/>
      <point x="297" y="-15" type="curve" smooth="yes"/>
      <point x="345" y="-15"/>
      <point x="388" y="-1"/>
      <point x="463" y="37" type="curve"/>
      <point x="438" y="98" type="line"/>
      <point x="396" y="77"/>
      <point x="374" y="66"/>
      <point x="336" y="51" type="curve"/>
      <point x="330" y="51"/>
      <point x="324" y="51"/>
      <point x="302" y="51" type="curve" smooth="yes"/>
      <point x="185" y="51"/>
      <point x="140" y="107"/>
      <point x="140" y="251" type="curve" smooth="yes"/>
      <point x="140" y="346"/>
      <point x="158" y="396"/>
      <point x="208" y="439" type="curve"/>
      <point x="238" y="444"/>
      <point x="263" y="447"/>
      <point x="286" y="447" type="curve" smooth="yes"/>
      <point x="332" y="447"/>
      <point x="370" y="434"/>
      <point x="430" y="398" type="curve"/>
      <point x="447" y="428" type="line"/>
      <point x="455" y="453" type="line"/>
      <point x="420" y="491"/>
      <point x="356" y="515"/>
      <point x="290" y="515" type="curve" smooth="yes"/>
      <point x="139" y="515"/>
      <point x="50" y="417"/>
    </contour>
  </outline>
</glyph>
<glyph name="d" format="2">
  <advance width="590"/>
  <unicode hex="0064"/>
  <outline>
    <contour>
      <point x="447" y="0" type="line"/>
      <point x="582" y="0" type="line"/>
      <point x="582" y="53" type="line"/>
      <point x="514" y="66" type="line"/>
      <point x="497" y="422" type="line"/>
      <point x="508" y="780" type="line"/>
      <point x="473" y="780" type="line"/>
      <point x="335" y="770" type="line"/>
      <point x="335" y="717" type="line"/>
      <point x="416" y="700" type="line"/>
      <point x="422" y="410" type="line"/>
      <point x="431" y="123" type="line"/>
      <point x="441" y="85" type="line"/>
    </contour>
    <contour>
      <point x="488" y="397" type="line"/>
      <point x="430" y="460"/>
      <point x="384" y="514"/>
      <point x="264" y="514" type="curve" smooth="yes"/>
      <point x="139" y="514"/>
      <point x="50" y="408"/>
      <point x="50" y="245" type="curve" smooth="yes"/>
      <point x="50" y="83"/>
      <point x="124" y="-16"/>
      <point x="307" y="-18" type="curve"/>
      <point x="386" y="8"/>
      <point x="427" y="70"/>
      <point x="474" y="116" type="curve"/>
      <point x="447" y="167" type="line"/>
      <point x="420" y="137"/>
      <point x="362" y="69"/>
      <point x="304" y="51" type="curve"/>
      <point x="180" y="56"/>
      <point x="142" y="130"/>
      <point x="142" y="256" type="curve" smooth="yes"/>
      <point x="142" y="340"/>
      <point x="160" y="401"/>
      <point x="213" y="441" type="curve"/>
      <point x="229" y="443"/>
      <point x="243" y="443"/>
      <point x="257" y="443" type="curve" smooth="yes"/>
      <point x="338" y="443"/>
      <point x="394" y="417"/>
      <point x="446" y="350" type="curve"/>
    </contour>
  </outline>
</glyph>
<glyph name="e" format="2">
  <advance width="552"/>
  <unicode hex="0065"/>
  <guideline x="532" y="301" angle="90"/>
  <guideline x="485" y="107" angle="180"/>
  <guideline x="480" y="119" angle="180"/>
  <anchor x="284" y="490" name="top.LC"/>
  <outline>
    <contour>
      <point x="298" y="-15" type="curve" smooth="yes"/>
      <point x="349" y="-15"/>
      <point x="397" y="-2"/>
      <point x="483" y="37" type="curve"/>
      <point x="458" y="98" type="line"/>
      <point x="428" y="84"/>
      <point x="397" y="72"/>
      <point x="336" y="52" type="curve"/>
      <point x="330" y="51"/>
      <point x="327" y="51"/>
      <point x="301" y="51" type="curve" smooth="yes"/>
      <point x="193" y="51"/>
      <point x="141" y="108"/>
      <point x="139" y="231" type="curve"/>
      <point x="453" y="231" type="line"/>
      <point x="502" y="296" type="line"/>
      <point x="489" y="455"/>
      <point x="428" y="515"/>
      <point x="280" y="515" type="curve" smooth="yes"/>
      <point x="139" y="515"/>
      <point x="50" y="412"/>
      <point x="50" y="249" type="curve" smooth="yes"/>
      <point x="50" y="69"/>
      <point x="129" y="-15"/>
    </contour>
    <contour>
      <point x="139" y="260" type="line"/>
      <point x="139" y="350"/>
      <point x="155" y="391"/>
      <point x="208" y="439" type="curve"/>
      <point x="239" y="444"/>
      <point x="264" y="446"/>
      <point x="282" y="446" type="curve" smooth="yes"/>
      <point x="381" y="446"/>
      <point x="419" y="397"/>
      <point x="422" y="267" type="curve"/>
      <point x="451" y="299" type="line"/>
      <point x="97" y="299" type="line"/>
    </contour>
  </outline>
</glyph>
<glyph name="f" format="2">
  <advance width="400"/>
  <unicode hex="0066"/>
  <outline>
    <contour>
      <point x="45" y="0" type="line"/>
      <point x="316" y="0" type="line"/>
      <point x="316" y="51" type="line"/>
      <point x="191" y="73" type="line"/>
      <point x="147" y="73" type="line"/>
      <point x="45" y="51" type="line"/>
    </contour>
    <contour>
      <point x="119" y="0" type="line"/>
      <point x="213" y="0" type="line"/>
      <point x="205" y="255" type="line"/>
      <point x="204" y="299"/>
      <point x="204" y="339"/>
      <point x="204" y="375" type="curve" smooth="yes"/>
      <point x="204" y="416"/>
      <point x="205" y="452"/>
      <point x="205" y="483" type="curve" smooth="yes"/>
      <point x="205" y="653"/>
      <point x="211" y="692"/>
      <point x="259" y="719" type="curve"/>
      <point x="303" y="713"/>
      <point x="348" y="697"/>
      <point x="391" y="667" type="curve"/>
      <point x="430" y="696" type="line"/>
      <point x="402" y="754" type="line"/>
      <point x="335" y="779"/>
      <point x="301" y="780"/>
      <point x="259" y="780" type="curve" smooth="yes"/>
      <point x="171" y="780"/>
      <point x="119" y="709"/>
      <point x="119" y="602" type="curve"/>
      <point x="126" y="254" type="line"/>
    </contour>
    <contour>
      <point x="350" y="412" type="line"/>
      <point x="370" y="463" type="line"/>
      <point x="352" y="495" type="line"/>
      <point x="45" y="483" type="line"/>
      <point x="45" y="426" type="line"/>
    </contour>
  </outline>
</glyph>
<glyph name="i" format="2">
  <advance width="313"/>
  <unicode hex="0069"/>
  <outline>
    <contour>
      <point x="46" y="0" type="line"/>
      <point x="286" y="0" type="line"/>
      <point x="286" y="52" type="line"/>
      <point x="183" y="73" type="line"/>
      <point x="149" y="73" type="line"/>
      <point x="46" y="51" type="line"/>
    </contour>
    <contour>
      <point x="155" y="574" type="curve"/>
      <point x="174" y="574"/>
      <point x="226" y="630"/>
      <point x="226" y="653" type="curve"/>
      <point x="226" y="673"/>
      <point x="183" y="711"/>
      <point x="160" y="711" type="curve" smooth="yes"/>
      <point x="134" y="711"/>
      <point x="85" y="658"/>
      <point x="85" y="633" type="curve"/>
      <point x="85" y="612"/>
      <point x="134" y="574"/>
    </contour>
    <contour>
      <point x="45" y="426" type="line"/>
      <point x="120" y="410" type="line"/>
      <point x="127" y="255" type="line"/>
      <point x="117" y="28" type="line"/>
      <point x="217" y="28" type="line"/>
      <point x="207" y="255" type="line"/>
      <point x="219" y="490" type="line"/>
      <point x="184" y="490" type="line"/>
      <point x="45" y="480" type="line"/>
    </contour>
  </outline>
</glyph>
<glyph name="k" format="2">
  <advance width="571"/>
  <unicode hex="006B"/>
  <outline>
    <contour>
      <point x="393" y="417" type="line"/>
      <point x="427" y="417" type="line"/>
      <point x="545" y="437" type="line"/>
      <point x="545" y="490" type="line"/>
      <point x="308" y="490" type="line"/>
      <point x="308" y="437" type="line"/>
    </contour>
    <contour>
      <point x="188" y="173" type="line"/>
      <point x="240" y="222" type="line"/>
      <point x="306" y="290" type="line"/>
      <point x="485" y="433" type="line"/>
      <point x="375" y="438" type="line"/>
      <point x="265" y="327" type="line"/>
      <point x="183" y="253" type="line"/>
    </contour>
    <contour>
      <point x="36" y="0" type="line"/>
      <point x="278" y="0" type="line"/>
      <point x="278" y="51" type="line"/>
      <point x="203" y="66" type="line"/>
      <point x="197" y="253" type="line"/>
      <point x="203" y="780" type="line"/>
      <point x="166" y="780" type="line"/>
      <point x="30" y="770" type="line"/>
      <point x="30" y="717" type="line"/>
      <point x="111" y="700" type="line"/>
      <point x="115" y="252" type="line"/>
      <point x="111" y="66" type="line"/>
      <point x="36" y="51" type="line"/>
    </contour>
    <contour>
      <point x="264" y="290" type="line"/>
      <point x="313" y="196" type="line"/>
      <point x="371" y="52" type="line"/>
      <point x="400" y="12"/>
      <point x="441" y="-5"/>
      <point x="490" y="-5" type="curve"/>
      <point x="549" y="20" type="line"/>
      <point x="539" y="76" type="line"/>
      <point x="529" y="76"/>
      <point x="522" y="76"/>
      <point x="515" y="76" type="curve" smooth="yes"/>
      <point x="490" y="76"/>
      <point x="474" y="78"/>
      <point x="415" y="94" type="curve"/>
      <point x="464" y="68" type="line"/>
      <point x="375" y="236" type="line"/>
      <point x="322" y="346" type="line"/>
    </contour>
  </outline>
</glyph>
<glyph name="l" format="2">
  <advance width="298"/>
  <unicode hex="006C"/>
  <outline>
    <contour>
      <point x="36" y="0" type="line"/>
      <point x="278" y="0" type="line"/>
      <point x="278" y="51" type="line"/>
      <point x="203" y="66" type="line"/>
      <point x="191" y="255" type="line"/>
      <point x="203" y="780" type="line"/>
      <point x="166" y="780" type="line"/>
      <point x="30" y="770" type="line"/>
      <point x="30" y="717" type="line"/>
      <point x="111" y="700" type="line"/>
      <point x="117" y="255" type="line"/>
      <point x="111" y="66" type="line"/>
      <point x="36" y="51" type="line"/>
    </contour>
  </outline>
</glyph>
<glyph name="m" format="2">
  <advance width="957"/>
  <unicode hex="006D"/>
  <outline>
    <contour>
      <point x="769" y="28" type="line"/>
      <point x="864" y="28" type="line"/>
      <point x="854" y="254" type="line"/>
      <point x="854" y="259"/>
      <point x="854" y="264"/>
      <point x="854" y="269" type="curve" smooth="yes"/>
      <point x="854" y="417"/>
      <point x="838" y="504"/>
      <point x="726" y="504" type="curve" smooth="yes"/>
      <point x="655" y="504"/>
      <point x="555" y="464"/>
      <point x="473" y="362" type="curve"/>
      <point x="503" y="322" type="line"/>
      <point x="602" y="418"/>
      <point x="691" y="425"/>
      <point x="760" y="438" type="curve"/>
      <point x="727" y="443" type="line"/>
      <point x="762" y="413"/>
      <point x="774" y="367"/>
      <point x="774" y="276" type="curve" smooth="yes"/>
      <point x="774" y="269"/>
      <point x="774" y="262"/>
      <point x="774" y="254" type="curve" smooth="yes"/>
    </contour>
    <contour>
      <point x="45" y="0" type="line"/>
      <point x="288" y="0" type="line"/>
      <point x="288" y="53" type="line"/>
      <point x="189" y="73" type="line"/>
      <point x="155" y="73" type="line"/>
      <point x="45" y="53" type="line"/>
    </contour>
    <contour>
      <point x="367" y="0" type="line"/>
      <point x="609" y="0" type="line"/>
      <point x="609" y="53" type="line"/>
      <point x="511" y="73" type="line"/>
      <point x="477" y="73" type="line"/>
      <point x="367" y="53" type="line"/>
    </contour>
    <contour>
      <point x="445" y="28" type="line"/>
      <point x="540" y="28" type="line"/>
      <point x="530" y="254" type="line"/>
      <point x="530" y="264"/>
      <point x="530" y="273"/>
      <point x="530" y="282" type="curve" smooth="yes"/>
      <point x="530" y="422"/>
      <point x="520" y="504"/>
      <point x="419" y="504" type="curve" smooth="yes"/>
      <point x="349" y="504"/>
      <point x="260" y="457"/>
      <point x="168" y="372" type="curve"/>
      <point x="197" y="330" type="line"/>
      <point x="309" y="410"/>
      <point x="370" y="419"/>
      <point x="436" y="433" type="curve"/>
      <point x="404" y="443" type="line"/>
      <point x="439" y="414"/>
      <point x="450" y="367"/>
      <point x="450" y="278" type="curve" smooth="yes"/>
      <point x="450" y="270"/>
      <point x="450" y="262"/>
      <point x="450" y="254" type="curve"/>
    </contour>
    <contour>
      <point x="691" y="0" type="line"/>
      <point x="937" y="0" type="line"/>
      <point x="937" y="53" type="line"/>
      <point x="821" y="73" type="line"/>
      <point x="787" y="73" type="line"/>
      <point x="691" y="53" type="line"/>
    </contour>
    <contour>
      <point x="45" y="427" type="line"/>
      <point x="119" y="410" type="line"/>
      <point x="126" y="254" type="line"/>
      <point x="116" y="28" type="line"/>
      <point x="216" y="28" type="line"/>
      <point x="206" y="254" type="line"/>
      <point x="215" y="490" type="line"/>
      <point x="182" y="490" type="line"/>
      <point x="45" y="480" type="line"/>
    </contour>
  </outline>
</glyph>
<glyph name="n" format="2">
  <advance width="652"/>
  <unicode hex="006E"/>
  <anchor x="321" y="490" name="top.LC"/>
  <outline>
    <contour>
      <point x="464" y="28" type="line"/>
      <point x="559" y="28" type="line"/>
      <point x="549" y="254" type="line"/>
      <point x="549" y="269"/>
      <point x="550" y="283"/>
      <point x="550" y="297" type="curve" smooth="yes"/>
      <point x="550" y="428"/>
      <point x="529" y="504"/>
      <point x="421" y="504" type="curve" smooth="yes"/>
      <point x="350" y="504"/>
      <point x="260" y="459"/>
      <point x="168" y="374" type="curve"/>
      <point x="198" y="334" type="line"/>
      <point x="308" y="409"/>
      <point x="379" y="419"/>
      <point x="436" y="430" type="curve"/>
      <point x="467" y="396"/>
      <point x="466" y="342"/>
      <point x="469" y="254" type="curve"/>
    </contour>
    <contour>
      <point x="386" y="0" type="line"/>
      <point x="632" y="0" type="line"/>
      <point x="632" y="51" type="line"/>
      <point x="526" y="73" type="line"/>
      <point x="492" y="73" type="line"/>
      <point x="386" y="51" type="line"/>
    </contour>
    <contour>
      <point x="163" y="400" type="line"/>
      <point x="182" y="490" type="line"/>
      <point x="45" y="480" type="line"/>
      <point x="45" y="427" type="line"/>
    </contour>
    <contour>
      <point x="45" y="0" type="line"/>
      <point x="287" y="0" type="line"/>
      <point x="287" y="51" type="line"/>
      <point x="214" y="67" type="line"/>
      <point x="206" y="254" type="line"/>
      <point x="214" y="490" type="line"/>
      <point x="182" y="490" type="line"/>
      <point x="116" y="480" type="line"/>
      <point x="126" y="254" type="line"/>
      <point x="118" y="66" type="line"/>
      <point x="45" y="51" type="line"/>
    </contour>
  </outline>
</glyph>
<glyph name="o" format="2">
  <advance width="582"/>
  <unicode hex="006F"/>
  <anchor x="281" y="490" name="top.LC"/>
  <outline>
    <contour>
      <point x="50" y="250" type="curve" smooth="yes"/>
      <point x="50" y="72"/>
      <point x="129" y="-15"/>
      <point x="291" y="-15" type="curve" smooth="yes"/>
      <point x="443" y="-15"/>
      <point x="532" y="83"/>
      <point x="532" y="250" type="curve" smooth="yes"/>
      <point x="532" y="428"/>
      <point x="453" y="515"/>
      <point x="291" y="515" type="curve" smooth="yes"/>
      <point x="138" y="515"/>
      <point x="50" y="418"/>
    </contour>
    <contour>
      <point x="139" y="250" type="curve" smooth="yes"/>
      <point x="139" y="342"/>
      <point x="159" y="397"/>
      <point x="207" y="439" type="curve"/>
      <point x="241" y="444"/>
      <point x="270" y="447"/>
      <point x="281" y="447" type="curve" smooth="yes"/>
      <point x="395" y="447"/>
      <point x="443" y="388"/>
      <point x="443" y="250" type="curve" smooth="yes"/>
      <point x="443" y="157"/>
      <point x="423" y="102"/>
      <point x="375" y="60" type="curve"/>
      <point x="341" y="55"/>
      <point x="312" y="52"/>
      <point x="301" y="52" type="curve" smooth="yes"/>
      <point x="190" y="52"/>
      <point x="139" y="115"/>
    </contour>
  </outline>
</glyph>
<glyph name="p" format="2">
  <advance width="630"/>
  <unicode hex="0070"/>
  <outline>
    <contour>
      <point x="142" y="99" type="line"/>
      <point x="198" y="36"/>
      <point x="246" y="-18"/>
      <point x="366" y="-18" type="curve" smooth="yes"/>
      <point x="491" y="-18"/>
      <point x="580" y="88"/>
      <point x="580" y="251" type="curve" smooth="yes"/>
      <point x="580" y="413"/>
      <point x="506" y="514"/>
      <point x="323" y="514" type="curve"/>
      <point x="244" y="488"/>
      <point x="203" y="426"/>
      <point x="156" y="380" type="curve"/>
      <point x="183" y="329" type="line"/>
      <point x="210" y="361"/>
      <point x="268" y="427"/>
      <point x="326" y="445" type="curve"/>
      <point x="450" y="440"/>
      <point x="488" y="366"/>
      <point x="488" y="240" type="curve" smooth="yes"/>
      <point x="488" y="156"/>
      <point x="470" y="95"/>
      <point x="417" y="55" type="curve"/>
      <point x="401" y="54"/>
      <point x="387" y="53"/>
      <point x="373" y="53" type="curve" smooth="yes"/>
      <point x="292" y="53"/>
      <point x="236" y="79"/>
      <point x="184" y="146" type="curve"/>
    </contour>
    <contour>
      <point x="45" y="427" type="line"/>
      <point x="118" y="410" type="line"/>
      <point x="125" y="252" type="line"/>
      <point x="119" y="-154" type="line"/>
      <point x="46" y="-169" type="line"/>
      <point x="46" y="-220" type="line"/>
      <point x="288" y="-220" type="line"/>
      <point x="288" y="-169" type="line"/>
      <point x="215" y="-153" type="line"/>
      <point x="205" y="250" type="line"/>
      <point x="194" y="490" type="line"/>
      <point x="181" y="490" type="line"/>
      <point x="45" y="480" type="line"/>
    </contour>
  </outline>
</glyph>
<glyph name="r" format="2">
  <advance width="472"/>
  <unicode hex="0072"/>
  <outline>
    <contour>
      <point x="116" y="28" type="line"/>
      <point x="216" y="28" type="line"/>
      <point x="206" y="254" type="line"/>
      <point x="215" y="490" type="line"/>
      <point x="207" y="490" type="line"/>
      <point x="45" y="480" type="line"/>
      <point x="45" y="427" type="line"/>
      <point x="119" y="410" type="line"/>
      <point x="126" y="254" type="line"/>
    </contour>
    <contour>
      <point x="45" y="0" type="line"/>
      <point x="317" y="0" type="line"/>
      <point x="317" y="53" type="line"/>
      <point x="189" y="73" type="line"/>
      <point x="155" y="73" type="line"/>
      <point x="45" y="51" type="line"/>
    </contour>
    <contour>
      <point x="146" y="357" type="curve"/>
      <point x="180" y="307" type="line"/>
      <point x="219" y="356"/>
      <point x="290" y="394"/>
      <point x="369" y="430" type="curve"/>
      <point x="352" y="474" type="line"/>
      <point x="363" y="341" type="line"/>
      <point x="426" y="341" type="line"/>
      <point x="442" y="458" type="line"/>
      <point x="415" y="491"/>
      <point x="400" y="499"/>
      <point x="385" y="499" type="curve" smooth="yes"/>
      <point x="311" y="499"/>
      <point x="213" y="418"/>
    </contour>
  </outline>
</glyph>
<glyph name="u" format="2">
  <advance width="611"/>
  <unicode hex="0075"/>
  <anchor x="281" y="490" name="top.LC"/>
  <outline>
    <contour>
      <point x="231" y="-15" type="curve" smooth="yes"/>
      <point x="302" y="-15"/>
      <point x="394" y="31"/>
      <point x="468" y="140" type="curve"/>
      <point x="437" y="178" type="line"/>
      <point x="350" y="80"/>
      <point x="266" y="66"/>
      <point x="205" y="56" type="curve"/>
      <point x="235" y="49" type="line"/>
      <point x="201" y="86"/>
      <point x="182" y="123"/>
      <point x="182" y="234" type="curve"/>
      <point x="187" y="462" type="line"/>
      <point x="92" y="462" type="line"/>
      <point x="102" y="236" type="line"/>
      <point x="102" y="48"/>
      <point x="129" y="-15"/>
    </contour>
    <contour>
      <point x="183" y="392" type="line"/>
      <point x="190" y="490" type="line"/>
      <point x="20" y="484" type="line"/>
      <point x="20" y="429" type="line"/>
    </contour>
    <contour>
      <point x="445" y="0" type="line"/>
      <point x="581" y="0" type="line"/>
      <point x="581" y="53" type="line"/>
      <point x="512" y="67" type="line"/>
      <point x="505" y="236" type="line"/>
      <point x="515" y="462" type="line"/>
      <point x="415" y="462" type="line"/>
      <point x="426" y="235" type="line"/>
      <point x="435" y="140" type="line"/>
    </contour>
    <contour>
      <point x="512" y="395" type="line"/>
      <point x="517" y="490" type="line"/>
      <point x="345" y="483" type="line"/>
      <point x="345" y="428" type="line"/>
    </contour>
  </outline>
</glyph>
<glyph name="w" format="2">
  <advance width="824"/>
  <unicode hex="0077"/>
  <outline>
    <contour>
      <point x="220" y="0" type="line"/>
      <point x="308" y="0" type="line"/>
      <point x="383" y="259" type="line"/>
      <point x="433" y="450" type="line"/>
      <point x="462" y="490" type="line"/>
      <point x="374" y="490" type="line"/>
      <point x="318" y="259" type="line"/>
      <point x="257" y="43" type="line"/>
      <point x="276" y="69" type="line"/>
      <point x="212" y="259" type="line"/>
      <point x="155" y="462" type="line"/>
      <point x="52" y="462" type="line"/>
      <point x="132" y="259" type="line"/>
    </contour>
    <contour>
      <point x="106" y="417" type="line"/>
      <point x="140" y="417" type="line"/>
      <point x="225" y="437" type="line"/>
      <point x="225" y="490" type="line"/>
      <point x="0" y="490" type="line"/>
      <point x="0" y="437" type="line"/>
    </contour>
    <contour>
      <point x="685" y="417" type="line"/>
      <point x="719" y="417" type="line"/>
      <point x="814" y="437" type="line"/>
      <point x="814" y="490" type="line"/>
      <point x="597" y="490" type="line"/>
      <point x="597" y="437" type="line"/>
    </contour>
    <contour>
      <point x="512" y="0" type="line"/>
      <point x="600" y="0" type="line"/>
      <point x="686" y="259" type="line"/>
      <point x="761" y="462" type="line"/>
      <point x="674" y="462" type="line"/>
      <point x="621" y="259" type="line"/>
      <point x="548" y="43" type="line"/>
      <point x="572" y="69" type="line"/>
      <point x="512" y="259" type="line"/>
      <point x="462" y="490" type="line"/>
      <point x="374" y="490" type="line"/>
      <point x="391" y="448" type="line"/>
      <point x="442" y="259" type="line"/>
    </contour>
  </outline>
</glyph>
<glyph name="y" format="2">
  <advance width="572"/>
  <unicode hex="0079"/>
  <outline>
    <contour>
      <point x="96" y="417" type="line"/>
      <point x="130" y="417" type="line"/>
      <point x="220" y="437" type="line"/>
      <point x="220" y="490" type="line"/>
      <point x="0" y="490" type="line"/>
      <point x="0" y="437" type="line"/>
    </contour>
    <contour>
      <point x="437" y="417" type="line"/>
      <point x="471" y="417" type="line"/>
      <point x="562" y="437" type="line"/>
      <point x="562" y="490" type="line"/>
      <point x="354" y="490" type="line"/>
      <point x="354" y="437" type="line"/>
    </contour>
    <contour>
      <point x="47" y="462" type="line"/>
      <point x="138" y="257" type="line"/>
      <point x="272" y="-50" type="line"/>
      <point x="272" y="32" type="line"/>
      <point x="236" y="-47"/>
      <point x="212" y="-97"/>
      <point x="192" y="-128" type="curve"/>
      <point x="158" y="-136"/>
      <point x="135" y="-138"/>
      <point x="110" y="-138" type="curve" smooth="yes"/>
      <point x="96" y="-138"/>
      <point x="82" y="-138"/>
      <point x="69" y="-137" type="curve"/>
      <point x="60" y="-198" type="line"/>
      <point x="119" y="-226" type="line"/>
      <point x="204" y="-220"/>
      <point x="256" y="-215"/>
      <point x="329" y="0" type="curve"/>
      <point x="432" y="260" type="line"/>
      <point x="519" y="462" type="line"/>
      <point x="424" y="462" type="line"/>
      <point x="360" y="265" type="line"/>
      <point x="283" y="55" type="line"/>
      <point x="312" y="56" type="line"/>
      <point x="218" y="261" type="line"/>
      <point x="151" y="462" type="line"/>
    </contour>
  </outline>
</glyph>
<glyph name="z" format="2">
  <advance width="525"/>
  <unicode hex="007A"/>
  <outline>
    <contour>
      <point x="89" y="422" type="line"/>
      <point x="224" y="429" type="line"/>
      <point x="356" y="426" type="line"/>
      <point x="373" y="460" type="line"/>
      <point x="230" y="256" type="line"/>
      <point x="60" y="55" type="line"/>
      <point x="60" y="0" type="line"/>
      <point x="465" y="0" type="line"/>
      <point x="465" y="68" type="line"/>
      <point x="301" y="60" type="line"/>
      <point x="161" y="65" type="line"/>
      <point x="142" y="27" type="line"/>
      <point x="291" y="225" type="line"/>
      <point x="457" y="435" type="line"/>
      <point x="457" y="490" type="line"/>
      <point x="89" y="490" type="line"/>
    </contour>
    <contour>
      <point x="125" y="490" type="line"/>
      <point x="62" y="490" type="line"/>
      <point x="62" y="341" type="line"/>
      <point x="125" y="341" type="line"/>
      <point x="136" y="447" type="line"/>
    </contour>
    <contour>
      <point x="384" y="43" type="line"/>
      <point x="384" y="0" type="line"/>
      <point x="465" y="0" type="line"/>
      <point x="465" y="150" type="line"/>
      <point x="402" y="150" type="line"/>
    </contour>
  </outline>
</glyph>
<glyph name="exclamdown" format="2">
  <advance width="295"/>
  <unicode hex="00A1"/>
  <outline>
    <contour>
      <point x="107" y="322" type="line"/>
      <point x="107" y="151" type="line"/>
      <point x="94" y="-210" type="line"/>
      <point x="198" y="-210" type="line"/>
      <point x="187" y="151" type="line"/>
      <point x="187" y="322" type="line"/>
    </contour>
    <contour>
      <point x="148" y="544" type="curve"/>
      <point x="115" y="544"/>
      <point x="70" y="489"/>
      <point x="70" y="462" type="curve"/>
      <point x="70" y="439"/>
      <point x="114" y="401"/>
      <point x="149" y="401" type="curve" smooth="yes"/>
      <point x="180" y="401"/>
      <point x="225" y="456"/>
      <point x="225" y="484" type="curve"/>
      <point x="225" y="511"/>
      <point x="178" y="544"/>
    </contour>
  </outline>
</glyph>
<glyph name="idotless" format="2">
  <advance width="313"/>
  <unicode hex="0131"/>
  <anchor x="160" y="490" name="top.LC"/>
  <outline>
    <contour>
      <point x="46" y="0" type="line"/>
      <point x="286" y="0" type="line"/>
      <point x="286" y="52" type="line"/>
      <point x="183" y="73" type="line"/>
      <point x="149" y="73" type="line"/>
      <point x="46" y="51" type="line"/>
    </contour>
    <contour>
      <point x="45" y="426" type="line"/>
      <point x="120" y="410" type="line"/>
      <point x="127" y="255" type="line"/>
      <point x="117" y="28" type="line"/>
      <point x="217" y="28" type="line"/>
      <point x="207" y="255" type="line"/>
      <point x="219" y="490" type="line"/>
      <point x="184" y="490" type="line"/>
      <point x="45" y="480" type="line"/>
    </contour>
  </outline>
</glyph>
<glyph name="acutecomb" format="2">
  <unicode hex="0301"/>
  <guideline x="-87" y="602" angle="90"/>
  <guideline x="145" y="677" angle="90"/>
  <guideline x="-9" y="677" angle="90"/>
  <guideline x="68" y="677" angle="90"/>
  <anchor x="-10" y="490" name="_top.LC"/>
  <outline>
    <contour>
      <point x="142" y="717" type="line"/>
      <point x="92" y="743" type="line"/>
      <point x="-94" y="605" type="line"/>
      <point x="-66" y="556" type="line"/>
      <point x="129" y="659" type="line"/>
    </contour>
  </outline>
</glyph>
<glyph name="tildecomb" format="2">
  <unicode hex="0303"/>
  <anchor x="334" y="490" name="_top.LC"/>
  <outline>
    <contour>
      <point x="176" y="668" type="line"/>
      <point x="166" y="647"/>
      <point x="160" y="618"/>
      <point x="160" y="581" type="curve"/>
      <point x="239" y="569" type="line"/>
      <point x="235" y="580"/>
      <point x="233" y="599"/>
      <point x="233" y="618" type="curve" smooth="yes"/>
      <point x="233" y="634"/>
      <point x="235" y="651"/>
      <point x="238" y="664" type="curve"/>
      <point x="218" y="611" type="line"/>
      <point x="225" y="623"/>
      <point x="239" y="643"/>
      <point x="260" y="643" type="curve" smooth="yes"/>
      <point x="280" y="643"/>
      <point x="301" y="629"/>
      <point x="323" y="614" type="curve" smooth="yes"/>
      <point x="355" y="592"/>
      <point x="390" y="566"/>
      <point x="428" y="566" type="curve"/>
      <point x="509" y="615" type="line"/>
      <point x="519" y="636"/>
      <point x="525" y="665"/>
      <point x="525" y="703" type="curve"/>
      <point x="446" y="713" type="line"/>
      <point x="449" y="702"/>
      <point x="452" y="680"/>
      <point x="452" y="659" type="curve" smooth="yes"/>
      <point x="452" y="650"/>
      <point x="451" y="640"/>
      <point x="450" y="633" type="curve"/>
      <point x="457" y="660" type="line"/>
      <point x="446" y="643"/>
      <point x="436" y="641"/>
      <point x="426" y="641" type="curve" smooth="yes"/>
      <point x="403" y="641"/>
      <point x="378" y="660"/>
      <point x="351" y="678" type="curve" smooth="yes"/>
      <point x="322" y="698"/>
      <point x="290" y="717"/>
      <point x="257" y="717" type="curve"/>
    </contour>
  </outline>
</glyph>
<glyph name=".notdef" format="2">
  <advance width="600"/>
  <outline>
    <contour>
      <point x="24" y="334" type="curve" smooth="yes"/>
      <point x="24" y="180"/>
      <point x="146" y="58"/>
      <point x="300" y="58" type="curve" smooth="yes"/>
      <point x="453" y="58"/>
      <point x="575" y="180"/>
      <point x="575" y="334" type="curve" smooth="yes"/>
      <point x="575" y="488"/>
      <point x="453" y="610"/>
      <point x="300" y="610" type="curve" smooth="yes"/>
      <point x="146" y="610"/>
      <point x="24" y="488"/>
    </contour>
    <contour>
      <point x="54" y="334" type="curve" smooth="yes"/>
      <point x="54" y="468"/>
      <point x="165" y="579"/>
      <point x="300" y="579" type="curve" smooth="yes"/>
      <point x="434" y="579"/>
      <point x="545" y="468"/>
      <point x="545" y="334" type="curve" smooth="yes"/>
      <point x="545" y="199"/>
      <point x="435" y="89"/>
      <point x="300" y="89" type="curve" smooth="yes"/>
      <point x="165" y="89"/>
      <point x="54" y="200"/>
    </contour>
    <contour>
      <point x="100" y="235" type="line"/>
      <point x="117" y="205" type="line"/>
      <point x="132" y="213" type="line"/>
      <point x="205" y="167" type="line"/>
      <point x="205" y="165"/>
      <point x="206" y="163"/>
      <point x="207" y="161" type="curve"/>
      <point x="207" y="160"/>
      <point x="207" y="160"/>
      <point x="207" y="159" type="curve"/>
      <point x="213" y="148"/>
      <point x="226" y="144"/>
      <point x="236" y="152" type="curve" smooth="yes"/>
      <point x="244" y="157"/>
      <point x="248" y="168"/>
      <point x="243" y="177" type="curve" smooth="yes"/>
      <point x="238" y="187"/>
      <point x="230" y="191"/>
      <point x="219" y="188" type="curve"/>
      <point x="179" y="215" type="line"/>
      <point x="175" y="206" type="line"/>
      <point x="187" y="204"/>
      <point x="199" y="203"/>
      <point x="211" y="203" type="curve" smooth="yes"/>
      <point x="241" y="203"/>
      <point x="270" y="210"/>
      <point x="300" y="225" type="curve"/>
      <point x="325" y="211"/>
      <point x="356" y="203"/>
      <point x="388" y="203" type="curve" smooth="yes"/>
      <point x="406" y="203"/>
      <point x="419" y="205"/>
      <point x="430" y="208" type="curve"/>
      <point x="426" y="217" type="line"/>
      <point x="384" y="188" type="line"/>
      <point x="373" y="191"/>
      <point x="365" y="187"/>
      <point x="360" y="177" type="curve" smooth="yes"/>
      <point x="355" y="168"/>
      <point x="359" y="157"/>
      <point x="367" y="152" type="curve" smooth="yes"/>
      <point x="378" y="145"/>
      <point x="390" y="148"/>
      <point x="396" y="159" type="curve"/>
      <point x="396" y="160"/>
      <point x="396" y="160"/>
      <point x="396" y="161" type="curve"/>
      <point x="397" y="163"/>
      <point x="398" y="165"/>
      <point x="398" y="167" type="curve"/>
      <point x="471" y="213" type="line"/>
      <point x="486" y="205" type="line"/>
      <point x="503" y="235" type="line"/>
      <point x="489" y="243" type="line"/>
      <point x="492" y="329" type="line"/>
      <point x="495" y="331"/>
      <point x="497" y="334"/>
      <point x="498" y="336" type="curve" smooth="yes"/>
      <point x="504" y="346"/>
      <point x="501" y="357"/>
      <point x="491" y="363" type="curve" smooth="yes"/>
      <point x="483" y="369"/>
      <point x="469" y="365"/>
      <point x="464" y="357" type="curve" smooth="yes"/>
      <point x="458" y="347"/>
      <point x="459" y="338"/>
      <point x="466" y="331" type="curve"/>
      <point x="463" y="279" type="line"/>
      <point x="473" y="280" type="line"/>
      <point x="461" y="324"/>
      <point x="433" y="361"/>
      <point x="393" y="387" type="curve"/>
      <point x="392" y="429"/>
      <point x="377" y="469"/>
      <point x="351" y="499" type="curve"/>
      <point x="345" y="491" type="line"/>
      <point x="383" y="473" type="line"/>
      <point x="386" y="464"/>
      <point x="393" y="459"/>
      <point x="404" y="459" type="curve" smooth="yes"/>
      <point x="413" y="459"/>
      <point x="422" y="468"/>
      <point x="422" y="478" type="curve" smooth="yes"/>
      <point x="422" y="490"/>
      <point x="414" y="498"/>
      <point x="403" y="498" type="curve" smooth="yes"/>
      <point x="400" y="498"/>
      <point x="397" y="498"/>
      <point x="394" y="497" type="curve"/>
      <point x="317" y="537" type="line"/>
      <point x="317" y="553" type="line"/>
      <point x="283" y="553" type="line"/>
      <point x="283" y="537" type="line"/>
      <point x="206" y="497" type="line"/>
      <point x="203" y="498"/>
      <point x="200" y="498"/>
      <point x="197" y="498" type="curve" smooth="yes"/>
      <point x="186" y="498"/>
      <point x="178" y="490"/>
      <point x="178" y="478" type="curve" smooth="yes"/>
      <point x="178" y="468"/>
      <point x="187" y="459"/>
      <point x="196" y="459" type="curve" smooth="yes"/>
      <point x="207" y="459"/>
      <point x="214" y="464"/>
      <point x="217" y="474" type="curve"/>
      <point x="254" y="492" type="line"/>
      <point x="248" y="499" type="line"/>
      <point x="222" y="468"/>
      <point x="207" y="428"/>
      <point x="206" y="387" type="curve"/>
      <point x="171" y="366"/>
      <point x="144" y="334"/>
      <point x="129" y="295" type="curve"/>
      <point x="139" y="293" type="line"/>
      <point x="137" y="331" type="line"/>
      <point x="144" y="338"/>
      <point x="145" y="347"/>
      <point x="139" y="357" type="curve" smooth="yes"/>
      <point x="134" y="366"/>
      <point x="121" y="369"/>
      <point x="112" y="363" type="curve" smooth="yes"/>
      <point x="102" y="357"/>
      <point x="99" y="346"/>
      <point x="105" y="336" type="curve" smooth="yes"/>
      <point x="106" y="334"/>
      <point x="108" y="331"/>
      <point x="111" y="329" type="curve"/>
      <point x="114" y="243" type="line"/>
    </contour>
    <contour>
      <point x="151" y="247" type="curve"/>
      <point x="155" y="287"/>
      <point x="177" y="325"/>
      <point x="210" y="350" type="curve"/>
      <point x="224" y="303"/>
      <point x="242" y="270"/>
      <point x="270" y="246" type="curve"/>
      <point x="251" y="239"/>
      <point x="231" y="235"/>
      <point x="211" y="235" type="curve" smooth="yes"/>
      <point x="189" y="235"/>
      <point x="169" y="239"/>
    </contour>
    <contour>
      <point x="240" y="402" type="curve"/>
      <point x="245" y="441"/>
      <point x="268" y="481"/>
      <point x="300" y="504" type="curve"/>
      <point x="333" y="479"/>
      <point x="354" y="441"/>
      <point x="359" y="402" type="curve"/>
      <point x="340" y="409"/>
      <point x="319" y="412"/>
      <point x="299" y="412" type="curve" smooth="yes"/>
      <point x="279" y="412"/>
      <point x="258" y="409"/>
    </contour>
    <contour>
      <point x="240" y="368" type="curve"/>
      <point x="257" y="374"/>
      <point x="282" y="380"/>
      <point x="299" y="380" type="curve" smooth="yes"/>
      <point x="320" y="380"/>
      <point x="340" y="376"/>
      <point x="359" y="367" type="curve"/>
      <point x="355" y="326"/>
      <point x="333" y="288"/>
      <point x="300" y="264" type="curve"/>
      <point x="268" y="286"/>
      <point x="244" y="327"/>
    </contour>
    <contour>
      <point x="330" y="246" type="curve"/>
      <point x="361" y="273"/>
      <point x="382" y="311"/>
      <point x="390" y="349" type="curve"/>
      <point x="423" y="325"/>
      <point x="443" y="288"/>
      <point x="447" y="246" type="curve"/>
      <point x="430" y="239"/>
      <point x="410" y="235"/>
      <point x="388" y="235" type="curve" smooth="yes"/>
      <point x="369" y="235"/>
      <point x="350" y="238"/>
    </contour>
  </outline>
</glyph>
<glyph name="ampersand.case" format="2">
  <advance width="716"/>
  <outline>
    <contour>
      <point x="279" y="-15" type="curve" smooth="yes"/>
      <point x="365" y="-15"/>
      <point x="438" y="22"/>
      <point x="504" y="96" type="curve"/>
      <point x="454" y="130" type="line"/>
      <point x="422" y="109"/>
      <point x="397" y="93"/>
      <point x="358" y="69" type="curve"/>
      <point x="338" y="65"/>
      <point x="318" y="63"/>
      <point x="299" y="63" type="curve" smooth="yes"/>
      <point x="206" y="63"/>
      <point x="126" y="115"/>
      <point x="126" y="214" type="curve" smooth="yes"/>
      <point x="126" y="259"/>
      <point x="139" y="323"/>
      <point x="205" y="363" type="curve"/>
      <point x="175" y="417" type="line"/>
      <point x="64" y="359"/>
      <point x="32" y="279"/>
      <point x="32" y="200" type="curve" smooth="yes"/>
      <point x="32" y="57"/>
      <point x="150" y="-15"/>
    </contour>
    <contour>
      <point x="508" y="97" type="line"/>
      <point x="560" y="147"/>
      <point x="582" y="234"/>
      <point x="582" y="320" type="curve" smooth="yes"/>
      <point x="582" y="359"/>
      <point x="575" y="399"/>
      <point x="564" y="434" type="curve"/>
      <point x="495" y="437" type="line"/>
      <point x="509" y="396"/>
      <point x="509" y="353"/>
      <point x="509" y="308" type="curve" smooth="yes"/>
      <point x="509" y="249"/>
      <point x="492" y="185"/>
      <point x="457" y="143" type="curve"/>
    </contour>
    <contour>
      <point x="675" y="386" type="line"/>
      <point x="696" y="440" type="line"/>
      <point x="677" y="473" type="line"/>
      <point x="382" y="461" type="line"/>
      <point x="382" y="401" type="line"/>
    </contour>
    <contour>
      <point x="437" y="616" type="curve"/>
      <point x="489" y="616" type="line"/>
      <point x="496" y="676" type="line"/>
      <point x="469" y="712"/>
      <point x="394" y="739"/>
      <point x="316" y="739" type="curve" smooth="yes"/>
      <point x="214" y="739"/>
      <point x="110" y="682"/>
      <point x="110" y="552" type="curve" smooth="yes"/>
      <point x="110" y="473"/>
      <point x="165" y="406"/>
      <point x="256" y="295" type="curve" smooth="yes"/>
      <point x="324" y="212"/>
      <point x="393" y="117"/>
      <point x="461" y="44" type="curve"/>
      <point x="513" y="2"/>
      <point x="565" y="-16"/>
      <point x="617" y="-16" type="curve"/>
      <point x="661" y="15" type="line"/>
      <point x="642" y="55" type="line"/>
      <point x="586" y="59"/>
      <point x="537" y="89"/>
      <point x="508" y="117" type="curve"/>
      <point x="323" y="353" type="line" smooth="yes"/>
      <point x="267" y="424"/>
      <point x="200" y="497"/>
      <point x="200" y="571" type="curve" smooth="yes"/>
      <point x="200" y="597"/>
      <point x="202" y="616"/>
      <point x="227" y="642" type="curve"/>
      <point x="251" y="654"/>
      <point x="277" y="660"/>
      <point x="309" y="660" type="curve" smooth="yes"/>
      <point x="356" y="660"/>
      <point x="405" y="648"/>
    </contour>
  </outline>
</glyph>
<glyph name="dieresis.case" format="2">
  <anchor x="0" y="720" name="_top.UC"/>
  <outline>
    <contour>
      <point x="102" y="788" type="curve" smooth="yes"/>
      <point x="120" y="788"/>
      <point x="171" y="838"/>
      <point x="171" y="859" type="curve" smooth="yes"/>
      <point x="171" y="877"/>
      <point x="130" y="911"/>
      <point x="107" y="911" type="curve" smooth="yes"/>
      <point x="82" y="911"/>
      <point x="34" y="863"/>
      <point x="34" y="841" type="curve" smooth="yes"/>
      <point x="34" y="822"/>
      <point x="82" y="788"/>
    </contour>
    <contour>
      <point x="-102" y="788" type="curve" smooth="yes"/>
      <point x="-84" y="788"/>
      <point x="-33" y="838"/>
      <point x="-33" y="859" type="curve" smooth="yes"/>
      <point x="-33" y="877"/>
      <point x="-74" y="911"/>
      <point x="-97" y="911" type="curve" smooth="yes"/>
      <point x="-122" y="911"/>
      <point x="-170" y="863"/>
      <point x="-170" y="841" type="curve" smooth="yes"/>
      <point x="-170" y="822"/>
      <point x="-122" y="788"/>
    </contour>
  </outline>
</glyph>
<glyph name="tilde.case" format="2">
  <anchor x="0" y="720" name="_top.UC"/>
  <outline>
    <contour>
      <point x="-143" y="891" type="line"/>
      <point x="-153" y="870"/>
      <point x="-159" y="841"/>
      <point x="-159" y="804" type="curve"/>
      <point x="-80" y="792" type="line"/>
      <point x="-84" y="803"/>
      <point x="-86" y="822"/>
      <point x="-86" y="841" type="curve" smooth="yes"/>
      <point x="-86" y="857"/>
      <point x="-84" y="874"/>
      <point x="-81" y="887" type="curve"/>
      <point x="-101" y="834" type="line"/>
      <point x="-94" y="846"/>
      <point x="-80" y="866"/>
      <point x="-59" y="866" type="curve" smooth="yes"/>
      <point x="-38" y="866"/>
      <point x="-16" y="850"/>
      <point x="7" y="835" type="curve" smooth="yes"/>
      <point x="38" y="813"/>
      <point x="72" y="789"/>
      <point x="109" y="789" type="curve"/>
      <point x="190" y="838" type="line"/>
      <point x="200" y="859"/>
      <point x="206" y="888"/>
      <point x="206" y="926" type="curve"/>
      <point x="127" y="936" type="line"/>
      <point x="130" y="925"/>
      <point x="133" y="903"/>
      <point x="133" y="882" type="curve" smooth="yes"/>
      <point x="133" y="873"/>
      <point x="132" y="863"/>
      <point x="131" y="856" type="curve"/>
      <point x="138" y="883" type="line"/>
      <point x="127" y="866"/>
      <point x="117" y="864"/>
      <point x="107" y="864" type="curve" smooth="yes"/>
      <point x="84" y="864"/>
      <point x="60" y="882"/>
      <point x="34" y="900" type="curve" smooth="yes"/>
      <point x="4" y="920"/>
      <point x="-28" y="940"/>
      <point x="-62" y="940" type="curve"/>
    </contour>
  </outline>
</glyph>
